<svg width="19" height="19" viewBox="0 0 19 19" fill="none" xmlns="http://www.w3.org/2000/svg">
<path d="M16.6671 0.166992C17.1975 0.166992 17.7063 0.377706 18.0813 0.752779C18.4564 1.12785 18.6671 1.63656 18.6671 2.16699V16.167C18.6671 16.6974 18.4564 17.2061 18.0813 17.5812C17.7063 17.9563 17.1975 18.167 16.6671 18.167H2.66711C2.13668 18.167 1.62797 17.9563 1.2529 17.5812C0.877828 17.2061 0.667114 16.6974 0.667114 16.167V2.16699C0.667114 1.63656 0.877828 1.12785 1.2529 0.752779C1.62797 0.377706 2.13668 0.166992 2.66711 0.166992H16.6671ZM16.1671 15.667V10.367C16.1671 9.50239 15.8237 8.67319 15.2123 8.06182C14.6009 7.45046 13.7717 7.10699 12.9071 7.10699C12.0571 7.10699 11.0671 7.62699 10.5871 8.40699V7.29699H7.79711V15.667H10.5871V10.737C10.5871 9.96699 11.2071 9.33699 11.9771 9.33699C12.3484 9.33699 12.7045 9.48449 12.9671 9.74704C13.2296 10.0096 13.3771 10.3657 13.3771 10.737V15.667H16.1671ZM4.54711 5.72699C4.99268 5.72699 5.41999 5.54999 5.73505 5.23493C6.05012 4.91987 6.22711 4.49256 6.22711 4.04699C6.22711 3.11699 5.47711 2.35699 4.54711 2.35699C4.0989 2.35699 3.66904 2.53505 3.3521 2.85198C3.03517 3.16892 2.85711 3.59878 2.85711 4.04699C2.85711 4.97699 3.61711 5.72699 4.54711 5.72699ZM5.93711 15.667V7.29699H3.16711V15.667H5.93711Z" fill="#D2F65A"/>
</svg>
