<svg width="19" height="19" viewBox="0 0 19 19" fill="none" xmlns="http://www.w3.org/2000/svg">
<path d="M14.1671 8.75161C14.3056 8.9593 14.444 9.16699 14.5133 9.51315H12.2979C12.2979 9.44392 12.2979 9.30545 12.3671 9.16699C12.4363 9.02853 12.4363 8.9593 12.5748 8.82084C12.644 8.68238 12.7825 8.61315 12.921 8.54392C13.0594 8.47468 13.2671 8.40545 13.4748 8.40545C13.7517 8.47468 14.0287 8.54391 14.1671 8.75161ZM7.79788 8.26699C7.93635 8.12853 8.07481 7.92084 8.07481 7.64392C8.07481 7.50545 8.07481 7.36699 8.00558 7.22853C7.93635 7.1593 7.86711 7.02084 7.79788 7.02084C7.72865 6.95161 7.59019 6.95161 7.45173 6.88238H5.65173V8.47468H7.17481C7.3825 8.47468 7.59019 8.40545 7.79788 8.26699ZM7.24404 9.44392H5.65173V11.3131H7.24404C7.3825 11.3131 7.52096 11.3131 7.65942 11.2439C7.79788 11.2439 7.93635 11.1747 8.00558 11.1055C8.07481 11.0362 8.21327 10.967 8.2825 10.8285C8.35173 10.6901 8.35173 10.5516 8.35173 10.4131C8.35173 10.067 8.2825 9.79007 8.07481 9.65161C7.86711 9.51315 7.59019 9.44392 7.24404 9.44392ZM18.6671 3.5593V14.7747C18.6671 16.6439 17.144 18.167 15.2748 18.167H4.05942C2.19019 18.167 0.667114 16.6439 0.667114 14.7747V3.5593C0.667114 1.69007 2.19019 0.166992 4.05942 0.166992H15.2748C17.144 0.166992 18.6671 1.69007 18.6671 3.5593ZM12.021 6.81315H14.7902V6.12084H12.021V6.81315ZM9.80558 10.5516C9.80558 10.1362 9.73635 9.79007 9.52865 9.44392C9.32096 9.16699 9.04404 8.9593 8.62865 8.82084C8.90558 8.68238 9.1825 8.47468 9.32096 8.26699C9.45942 8.0593 9.52865 7.78238 9.52865 7.43622C9.52865 7.09007 9.45942 6.88238 9.39019 6.60545C9.25173 6.39776 9.11327 6.19007 8.97481 6.12084C8.76711 5.98238 8.55942 5.91315 8.2825 5.84392C7.93635 5.70545 7.65942 5.70545 7.31327 5.70545H4.12865V12.4901H7.45173C7.72865 12.4901 8.07481 12.4208 8.35173 12.3516C8.62865 12.2824 8.90558 12.1439 9.11327 12.0055C9.32096 11.867 9.52865 11.6593 9.66711 11.3824C9.73635 11.1747 9.80558 10.8978 9.80558 10.5516ZM12.2979 10.3439H15.8287C15.8287 9.92853 15.8287 9.58238 15.7594 9.23622C15.6902 8.89007 15.5517 8.54392 15.344 8.33622C15.1363 8.0593 14.8594 7.85161 14.5825 7.71315C14.2363 7.57468 13.8902 7.43622 13.4748 7.43622C13.1287 7.43622 12.7825 7.50545 12.4363 7.64392C12.1594 7.78238 11.8825 7.99007 11.6056 8.19776C11.3979 8.40545 11.1902 8.68238 11.121 9.02853C10.9825 9.37469 10.9133 9.72084 10.9133 10.067C10.9133 10.4131 10.9825 10.8285 11.121 11.1055C11.2594 11.4516 11.3979 11.7285 11.6056 11.9362C11.8133 12.1439 12.0902 12.3516 12.3671 12.4901C12.7133 12.6285 13.0594 12.6978 13.4056 12.6978C13.9594 12.6978 14.444 12.5593 14.8594 12.2824C15.2748 12.0055 15.5517 11.5901 15.7594 11.0362H14.5825C14.5133 11.1747 14.444 11.3131 14.2363 11.4516C14.0287 11.5901 13.821 11.6593 13.544 11.6593C13.1979 11.6593 12.8517 11.5901 12.644 11.3824C12.4363 11.1055 12.2979 10.7593 12.2979 10.3439Z" fill="#D2F65A"/>
</svg>
