<svg width="21" height="16" viewBox="0 0 21 16" fill="none" xmlns="http://www.w3.org/2000/svg">
<path d="M10.7315 0.666992H10.8428C11.8703 0.670996 17.0769 0.711035 18.4807 1.1141C18.9051 1.23711 19.2918 1.47688 19.6022 1.80945C19.9127 2.14203 20.1359 2.55575 20.2496 3.00928C20.3758 3.51644 20.4646 4.18777 20.5246 4.88045L20.5371 5.01925L20.5646 5.36625L20.5746 5.50506C20.6559 6.72492 20.6659 7.86737 20.6671 8.11694V8.21704C20.6659 8.47596 20.6546 9.69582 20.5646 10.9664L20.5546 11.1065L20.5434 11.2453C20.4809 12.0087 20.3883 12.7668 20.2496 13.3247C20.1362 13.7784 19.9131 14.1923 19.6027 14.525C19.2922 14.8576 18.9053 15.0972 18.4807 15.2199C17.0306 15.6363 11.519 15.6657 10.7552 15.667H10.5777C10.1915 15.667 8.59386 15.659 6.91876 15.5976L6.70624 15.5896L6.59749 15.5842L6.38372 15.5749L6.16996 15.5656C4.78237 15.5002 3.46104 15.3947 2.85225 15.2186C2.42784 15.096 2.04103 14.8566 1.73059 14.5242C1.42014 14.1918 1.19696 13.7782 1.08339 13.3247C0.944632 12.7682 0.852126 12.0087 0.789622 11.2453L0.779621 11.1052L0.769621 10.9664C0.707926 10.062 0.67374 9.15579 0.667114 8.24907L0.667114 8.08491C0.669614 7.79796 0.679615 6.80633 0.747119 5.71192L0.75587 5.57446L0.75962 5.50506L0.769621 5.36625L0.797122 5.01925L0.809623 4.88045C0.869627 4.18777 0.958382 3.51511 1.08464 3.00928C1.19801 2.55557 1.42111 2.14165 1.73157 1.80902C2.04203 1.47639 2.42894 1.23674 2.8535 1.1141C3.46229 0.940593 4.78362 0.833822 6.17121 0.76709L6.38372 0.757748L6.59874 0.74974L6.70624 0.745736L6.92001 0.736394C8.10971 0.69552 9.29991 0.672828 10.4902 0.668327H10.7315V0.666992ZM8.66761 4.95118V11.3815L13.8642 8.16766L8.66761 4.95118Z" fill="#D2F65A"/>
</svg>
