<svg width="19" height="19" viewBox="0 0 19 19" fill="none" xmlns="http://www.w3.org/2000/svg">
<path d="M10.4424 0.00112786C11.1113 -0.00143901 11.7803 0.00528393 12.449 0.0212946L12.6268 0.0277112C12.8322 0.0350446 13.0347 0.0442112 13.2795 0.0552112C14.2548 0.101045 14.9203 0.255045 15.5042 0.481461C16.1092 0.714295 16.6189 1.02963 17.1286 1.53929C17.5946 1.99727 17.9553 2.55125 18.1855 3.16271C18.4119 3.74663 18.5659 4.41304 18.6117 5.38838C18.6227 5.63221 18.6319 5.83571 18.6392 6.04104L18.6447 6.21888C18.661 6.8873 18.6681 7.55592 18.6658 8.22455L18.6667 8.90838V10.1092C18.669 10.7781 18.662 11.4471 18.6457 12.1158L18.6402 12.2936C18.6328 12.499 18.6237 12.7015 18.6127 12.9463C18.5668 13.9216 18.411 14.5871 18.1855 15.171C17.956 15.7832 17.5953 16.3376 17.1286 16.7954C16.6702 17.2613 16.1159 17.622 15.5042 17.8523C14.9203 18.0787 14.2548 18.2327 13.2795 18.2785C13.0347 18.2895 12.8322 18.2987 12.6268 18.306L12.449 18.3115C11.7803 18.3278 11.1113 18.3349 10.4424 18.3326L9.75858 18.3335H8.55866C7.88974 18.3358 7.22081 18.3288 6.55208 18.3125L6.37425 18.307C6.15664 18.2991 5.93908 18.2899 5.72158 18.2795C4.74625 18.2336 4.08075 18.0778 3.49591 17.8523C2.88421 17.6225 2.33013 17.2618 1.8725 16.7954C1.40596 16.3373 1.04495 15.783 0.814665 15.171C0.588248 14.5871 0.434248 13.9216 0.388415 12.9463C0.378206 12.7288 0.369039 12.5112 0.360915 12.2936L0.356331 12.1158C0.339431 11.4471 0.331792 10.7781 0.333415 10.1092V8.22455C0.330856 7.55593 0.337579 6.88731 0.353581 6.21888L0.359998 6.04104C0.367331 5.83571 0.376498 5.63221 0.387498 5.38838C0.433331 4.41213 0.587331 3.74754 0.813748 3.16271C1.04417 2.55095 1.40588 1.99712 1.87341 1.54021C2.33073 1.0734 2.88446 0.71207 3.49591 0.481461C4.08075 0.255045 4.74533 0.101045 5.72158 0.0552112L6.37425 0.0277112L6.55208 0.023128C7.2205 0.00623643 7.88912 -0.00140328 8.55775 0.000211262L10.4424 0.00112786ZM9.50008 4.58446C8.8928 4.57587 8.28986 4.68807 7.72631 4.91452C7.16276 5.14098 6.64984 5.47718 6.21736 5.90359C5.78487 6.33001 5.44145 6.83812 5.20704 7.39841C4.97264 7.9587 4.85193 8.55999 4.85193 9.16734C4.85193 9.77468 4.97264 10.376 5.20704 10.9363C5.44145 11.4966 5.78487 12.0047 6.21736 12.4311C6.64984 12.8575 7.16276 13.1937 7.72631 13.4201C8.28986 13.6466 8.8928 13.7588 9.50008 13.7502C10.7157 13.7502 11.8814 13.2673 12.741 12.4078C13.6005 11.5482 14.0834 10.3825 14.0834 9.16688C14.0834 7.9513 13.6005 6.78551 12.741 5.92597C11.8814 5.06643 10.7157 4.58446 9.50008 4.58446ZM9.50008 6.4178C9.86538 6.41106 10.2284 6.47719 10.5678 6.61232C10.9073 6.74744 11.2164 6.94886 11.4771 7.20479C11.7379 7.46073 11.945 7.76606 12.0864 8.10294C12.2278 8.43983 12.3007 8.80151 12.3007 9.16687C12.3008 9.53223 12.2281 9.89394 12.0868 10.2309C11.9455 10.5678 11.7384 10.8732 11.4778 11.1292C11.2171 11.3852 10.9081 11.5868 10.5687 11.722C10.2293 11.8572 9.8663 11.9235 9.501 11.9169C8.77165 11.9169 8.07218 11.6271 7.55645 11.1114C7.04073 10.5957 6.751 9.89622 6.751 9.16688C6.751 8.43753 7.04073 7.73806 7.55645 7.22233C8.07218 6.70661 8.77165 6.41688 9.501 6.41688L9.50008 6.4178ZM14.3126 3.20946C14.0169 3.2213 13.7372 3.3471 13.5321 3.56052C13.3271 3.77394 13.2126 4.05842 13.2126 4.35438C13.2126 4.65034 13.3271 4.93482 13.5321 5.14824C13.7372 5.36166 14.0169 5.48746 14.3126 5.49929C14.6165 5.49929 14.9079 5.37857 15.1228 5.16369C15.3377 4.9488 15.4584 4.65736 15.4584 4.35346C15.4584 4.04957 15.3377 3.75812 15.1228 3.54324C14.9079 3.32835 14.6165 3.20763 14.3126 3.20763V3.20946Z" fill="#D2F65A"/>
</svg>
