<?xml version="1.0" encoding="UTF-8"?>
<svg id="Layer_2" data-name="Layer 2" xmlns="http://www.w3.org/2000/svg" viewBox="0 0 812.18 185.44">
  <defs>
    <style>
      .cls-1 {
        fill: #606060;
      }
    </style>
  </defs>
  <g id="Layer_1-2" data-name="Layer 1">
    <path class="cls-1" d="M703.18,54.27h20.2v76.9h-24.3l-30.7-46.2v46.2h-20.2V54.27h24.3l30.7,46.6v-46.6ZM612.78,54.27l29,76.9h-21.3l-5.7-15.2h-32.7l-5.7,15.2h-20.2l28.7-76.9h27.9ZM609.08,100.47l-10.1-26.7h-1l-10.2,26.7h21.3ZM779.78,89.97l30.4-35.8h-25.7l-26,31v-31h-20.2v76.9h20.2v-35.1l27.7,35.1h26l-32.4-41.1ZM285.88,100.77l-30.7-46.6h-24.3v76.9h20.2v-46.2l30.7,46.2h24.3V54.17h-20.2v46.6ZM537.18,90.67c9.1,1.4,16.5,6.4,16.5,19.6,0,15.5-8.8,20.9-27,20.9h-43.2V54.27h41.5c17.5,0,26.3,6.1,26.3,20.6.1,8.7-6,14.8-14.1,15.8M503.78,84.27h16.9c7.1,0,8.4-2.7,8.4-6.7s-1.3-7.1-8.4-7.1h-16.9v13.8ZM523.08,114.97c7.1,0,8.4-3,8.4-7.1s-2-7.4-8.4-7.4h-19.2v14.5h19.2M434.98,54.27c25.3,0,38.1,10.8,38.1,38.5s-12.5,38.5-38.1,38.5h-37.8V54.37h37.8M433.28,114.97c9.8,0,17.5-4.7,17.5-22.3s-7.8-22.3-17.5-22.3h-15.9v44.5h15.9M320.98,131.17h61.4v-16.2h-41.2v-14.5h34.4v-16.2h-34.4v-13.8h41.2v-16.2h-61.4v76.9Z"/>
    <path class="cls-1" d="M139.64,73.7V11.51l35.76,24.2v111.74L9.23,36.85,47.32,11.51l92.31,62.19ZM185.77,31.1L139.64,0l-46.13,31.1L47.32,0,0,31.1v123.25l47.32,31.1,46.18-31.1,46.13,31.1,46.13-31.1V31.1ZM47.32,123.25l36.9,25.34-36.9,25.34v-50.69h0Z"/>
  </g>
</svg>