<?xml version="1.0" encoding="UTF-8"?>
<svg id="Layer_2" data-name="Layer 2" xmlns="http://www.w3.org/2000/svg" viewBox="0 0 365.64 186.56">
  <defs>
    <style>
      .cls-1 {
        fill: #606060;
      }
    </style>
  </defs>
  <g id="Layer_1-2" data-name="Layer 1">
    <g>
      <path class="cls-1" d="M218.16,26.36c.31.03.62-.07.94-.11l.15.08c-.16.07-.31.15-.48.21-.19.08-.4.15-.6.23-.24.09-.47.18-.73.21-.34.07-.66.23-.98.38-.28.13-.55.11-.84.04-.1-.03-.22-.03-.31,0-.41.1-.81.2-1.21.32-.17.05-.26-.02-.3-.15-.06-.21-.1-.43-.15-.67.24-.06.4-.25.69-.13.14.07.36-.03.56-.07.51-.12,1.01-.18,1.54-.17.13,0,.26-.04.4-.06.43-.04.87-.13,1.32-.11M213.51,33.08h.2c-.08.09-.13.07-.2,0M218.01,40.89l.07.05-.07.03-.03-.05.03-.03M218.69,40.92c-.05.1-.11.09-.22.07l.22-.07M217.15,24.77c-.11-.03-.23-.03-.3.07l-.11.07c-.11.03-.23.05-.35.08l-.09.05-.19.1c-.1-.01-.2.04-.28.08l-.08.04c-.35.13-.71.23-1.05.39-.26.12-.53.2-.81.28-.21.05-.43.1-.62.18-.21.09-.41.15-.63.18-.21.03-.42.06-.63.1-.21.04-.41.08-.62.12-.31.04-.63.07-.93.12-.41.07-.81.15-1.22.22-.21.05-.43.08-.64.12-.18.03-.36.09-.54.13-.46.09-.9.17-1.34.28-.08.02-.19,0-.29,0l-.02-.05.15-.09c.13-.06.26-.13.39-.2.29-.15.56-.31.86-.44.27-.12.54-.25.82-.35.21-.08.42-.18.66-.16l.2.06.18.03h.24s.18-.03.18-.03l.19-.1.11-.07-.03-.12-.19-.2-.14-.1-.09-.06c-.12-.13-.27-.13-.44-.1l-.13-.03c-.12-.09-.12-.1-.23,0l-.12.15c-.09.12-.17.23-.32.26-.24.06-.49.1-.74.16-.17.03-.35.06-.51.09-.2.04-.39.08-.59.13-.3.06-.61.11-.91.18-.12.02-.67.15-.82.18-.39.09-.78.14-1.15.3l-.07.02c-.1-.06-.2,0-.29.03-.13.03-.25.06-.38.1-.16.04-.34.09-.51.13-.18.05-.36.1-.55.15-.31.09-.65.15-.96.25-.19.06-.39.07-.56.18-.16.08-.35.11-.53.16-.26.08-.53.15-.79.23-.27.1-.55.19-.82.3-.33.16-.66.31-.98.48-.26.13-.51.28-.76.43l-.07.07v.03c.1,0,.21-.02.27.02.17.1.31-.02.47-.04l.18-.05c.26-.07.52-.13.77-.2.13-.03.24-.09.36-.08.14,0,.25-.07.38-.1l.08-.05c.31-.1.62-.2.94-.31.28-.09.57-.21.85-.3.23-.08.49-.15.73-.22.16-.05.33-.1.48-.14.29-.08.53-.25.82-.3.2-.04.41-.1.59-.17.2-.08.4-.12.57-.2.2-.09.41-.13.61-.2.29-.12,1.17-.4,1.31-.43.29-.06.59-.13.89-.2l.2.04-.14.07c-.29.13-.58.26-.88.38-.24.1-.48.16-.72.27-.39.15-.76.36-1.16.46l-.07.06-.1.07c-.22.1-.45.21-.67.31-.18.09-.36.18-.55.26-.11.05-.24.08-.37.13-.28.11-.56.21-.84.32-.13-.13-.25-.17-.38-.05l-.07.02c-.16.03-.32.05-.48.09l-.2.09c-.11.1-.21.15-.33.07-.13.06-.23.11-.35.16-.11.05-.22.09-.33.13-.07.03-.14.05-.21-.05l.21-.08-.15-.03c-.11.08-.22.16-.31.25-.08.1-.14.12-.26.06h-.23s-.12.03-.12.03c-.04.18-.07.2-.22.22l-.23.08-.17.04c-.18-.06-.31,0-.47.05-.26.1-.51.22-.78.27-.18.03-.33.1-.51.15-.1.03-.21.04-.32.06l-.11.02c-.13.04-.28.07-.4.12-.15.07-.34.11-.46.26-.06.08-.16.09-.28.05l-.11-.02c-.05.1-.08.17-.12.26l.08.09c.02.18.05.35.13.49-.05.24,0,.47.08.69l.08.21c.09.12.16.14.28.06l.14-.04c.26.05.47-.05.66-.21l.09-.08c.26-.12.51-.23.76-.35l.18-.07c.14-.07.28-.17.46-.17.1.01.21-.05.32-.08l.05-.05c.08-.11.17-.19.31-.18l.05-.02.23-.09c.2-.08.4-.15.6-.22.18-.07.36-.15.54-.25.1-.06.21-.05.31-.05l.02.19c.03.16.15.22.27.12l.2-.04h.14c.1-.05.18-.11.26-.17.31-.25.67-.45,1.04-.64l.2-.06.05.13c.14-.03.27-.05.41-.08l.18-.05c.11,0,.23,0,.35,0l.15-.03-.1-.05-.08-.07c.15-.03.26-.05.41-.08l-.09.16h.18c.24-.04.49-.08.73-.12.33-.07.65-.12.99-.1h.13c.12-.02.22-.02.37.05-.12.06-.21.11-.31.14-.13.06-.25.1-.32.23-.07.1-.19.18-.27.26.04.14.03.16-.09.23l-.13.05-.02.03.05.12-.09.16c.14.17.15.37.19.58l.06.11.22.06c.08.1.15.2.2.26.23.03.38-.06.55-.13.1-.04.21-.12.31-.18.15-.1.29-.21.45-.32.11-.08.25-.13.35-.23.14-.15.33-.21.5-.32.22-.13.44-.22.65-.35.33-.2.66-.39,1.02-.5.11-.03.24-.15.38-.03l.1-.03c.09-.04.18-.08.26-.11.04.11.06.19.08.3-.07.08-.13.19-.3.09l-.14.03c.04.1.1.18.09.26-.01.13.02.26-.05.38v.1c.08.15.07.31.05.48-.02.16-.04.19-.2.21-.1.01-.38.29-.38.37l.02.14.04.09-.07.18-.08.1c-.21.1-.41.22-.64.26-.16.02-.34.03-.48.11-.15.1-.33.1-.49.17l-.09.04-.21.09-.05.14c-.14.11-.29.21-.43.3.1.14.1.15,0,.33-.1.18-.22,0-.34.03l-.08.18c.03.1.05.19.09.27v.2c-.07.11-.11.23.03.34l.08.11-.08.16c.13.09.26.17.25.32l.23.16.12-.03c.1.02.18-.03.25-.09.13-.1.14-.1.24.08l.29.07c.11-.05.22-.12.34-.18l.1-.08-.06-.12c.13-.1.24-.24.43-.17.04.16-.2.05-.18.2h.06c.12-.05.23-.11.36-.16l.17-.06c.21-.01.44-.03.66-.03.35,0,.69-.12,1.04-.07l.06-.02c.14-.05.28.08.43.03l.07.07.03.1c.14.04.27-.11.41-.02l.21-.02h.25c.11-.05.19-.02.26.05l.13-.06h.22l.23.1-.05.18-.03.06c0,.1-.08.14-.16.18l-.08.06c-.02.16-.1.3-.21.42-.09.12-.08.26-.1.4-.02.1-.02.2-.02.3,0,.1,0,.2.08.27l.09.09c.01.12.08.14.17.16l.24.04c.05.09.02.23.13.31l.07-.06c.11-.1.26-.08.33.05.07.11.4,0,.65.1h.09c.22,0,.44.01.64.1h.05c.21.03,1.21.17,1.48.17.23,0,.46.02.69,0,.17,0,.22,0,.3.16l.06.17c.06.19.09.4.07.61-.01.18-.01.36-.05.54-.05.22-.14.42-.19.63l-.15.14c-.11.02-.18.1-.22.17-.05.18-.09.35-.11.52-.03.31-.04.62-.05.93,0,.09-.02.17-.09.23l-.08.08c-.12.2-.26.4-.46.54q.13.23.15.54l.04.13c.05.18.16.35.19.56.03.25.15.48.16.74l.08.16.08.09c.08.15.27.13.37.25h.03c.09-.08.22-.02.32-.03l.06-.12c.04-.11.1-.2.2-.27.07-.05.12-.13.12-.23.01-.09.05-.18.07-.26.02-.15.06-.3.05-.45,0-.2-.03-.38.03-.58l-.02-.15c-.05-.15-.04-.29.03-.44l.09-.24c.06-.09.02-.19.06-.27.1-.17.21-.33.31-.49l.08-.09-.04-.05q-.11-.12-.03-.26l.03-.07c-.07-.18.06-.25.17-.33.15-.09.16-.08.28.06.12-.09.23-.18.34-.26.15-.1.31-.18.48-.28l.25-.15c.15,0,.25-.07.39-.11.38-.12.74-.23,1.12-.35.24-.07.46-.21.75-.19l.03-.02c.17-.05.33-.1.49-.15.09-.03.18-.05.29-.05.1,0,.21-.02.26-.08.13-.15.31-.15.45-.25l.06-.05c-.12,0-.22.02-.3,0-.11-.03-.18.04-.26.06-.22.06-.45.06-.67.14h-.07s-.22.07-.22.07c-.11.11-.24.1-.35.04-.16-.09-.3-.02-.42.07-.2.15-.46.18-.68.29l-.1-.03-.16.03-.07.1-.11-.12-.23.13c-.13,0-.21.08-.31.13l.04.1c-.15.1-.19-.11-.33-.09v.12c.03.1-.04.17-.1.2-.14.07-.29.14-.43.21h-.16s.11-.15.11-.15c-.13.05-.23.07-.33.11-.19.11-.38.18-.56.32l-.08.07h-.09s-.05-.1-.05-.1c.02-.09.05-.18.08-.28.05-.19.09-.39.14-.59.05-.17.05-.35.14-.53.08-.16.11-.33.14-.51.04-.21.03-.42.07-.62.02-.13-.04-.29.08-.4v-.09c.02-.21-.11-.35-.23-.48-.09-.07-.15-.14-.16-.23l-.18-.02c-.18-.07-.36-.16-.53-.23l-.17-.05c-.28-.06-.55-.11-.83-.16l-.11-.06v-.04c.26-.1.53-.2.79-.31.1-.03.18-.05.27-.08.09-.03.2-.03.25-.09.1-.11.18-.02.26-.04h.02c.17-.14.38-.21.56-.3.15-.08.32-.15.49-.22h.12c.08.11.18.06.28.05.34,0,.68,0,1.02,0l.25-.02c.11-.01.19,0,.26.08-.07.1-.13.11-.24.07-.14-.07-.27-.05-.43.07l.14.02c.12-.02.22,0,.31.05.12.05.22.07.33.01.13.11.14.11.35.11-.16-.11-.08-.29-.22-.39l.07-.09-.08-.18h.23c.1,0,.15-.05.11-.15l-.1-.16-.1-.09c.01-.15.13-.08.19-.1.05-.15-.03-.22-.13-.28-.08-.05-.17-.09-.2-.19l.07-.1c-.04-.1-.07-.18-.11-.25l-.19-.18c.02-.13.03-.26.06-.38-.13-.05-.25-.08-.25-.24l-.07-.06c-.1-.02-.12-.09-.15-.16l-.07-.06-.15.1-.19-.06c-.21.04-.27,0-.35-.17-.22.1-.47-.03-.68.11h-.01c-.23-.03-.43.02-.61.15-.13.1-.25.19-.44.15-.08-.02-.18,0-.28,0-.16,0-.33-.05-.49-.03-.22.03-.44.07-.66-.02h-.03c-.17.09-.35.03-.53.04l-.2-.07c-.1-.1-.14-.09-.25,0l-.12.07c-.12,0-.23-.02-.34-.05-.09-.03-.17-.07-.26-.03-.2.05-.39-.07-.58-.06l-.08-.05c.11-.07.33-.37.46-.4.15-.03.29-.08.45-.05.17.03.21.06.15.22l-.03.08.08.02c.18.03.33-.08.49-.13.13-.05.12-.06.24.03l.11-.03c.16-.04.3-.1.39-.23l.16-.06c.11.03.18,0,.24-.1l.12-.08h.05v.15c.12-.03.2-.1.26-.17.07-.09.14-.14.25-.15l.12-.03c.2-.04.38-.14.61-.1,0,0,.67-.16,1-.16.14,0,.28-.05.41-.02.13.03.23.02.34-.03h.19s-.08.13-.08.13c.21,0,.39.02.58-.03l-.12-.13.1-.03c.19-.02.38-.05.57-.06.11-.02.19.01.22.12.17.02.33.05.5.06.1,0,.18.01.25.1l.17-.02.16-.03h.15c.15,0,.29,0,.44,0,.29.02.57.01.85-.07h.19c.15.06.28,0,.42-.03.13-.02.25-.03.37-.02.26.05.52.08.77,0l.17.05.15.03c.13-.04.26-.08.4-.11.19-.04.4-.03.57-.15l.07-.02c.1,0,.18,0,.27-.02.1-.02.18-.02.28.02h.47c.21,0,.4-.02.61-.02h.18c.24-.06.48,0,.73-.03.08,0,.16-.02.28-.04l.15.04c.18,0,.35,0,.53-.02.11,0,.22-.04.33,0,.18.06.37.03.58.03.28,0,.57.02.86,0,.28,0,.59.02.88.07.22.03.44.07.66.08.21,0,.41.07.61.1l.13.02c.09-.01.17,0,.23.1l.15.06c.16-.05.31,0,.43.1l.14-.06c.12.01.23.04.35.06l.21.03.19.02c.14,0,.25.05.38.02l.25.08.16.06.12.02c.14.05.28.1.42.15.09.03.2.07.3.1.2.07.39.07.59.15.16.06.31.1.39.27.12-.04.19.01.26.1l.14.08c.17,0,.34,0,.49.12.08-.13-.08-.2-.06-.29l.14-.24.21.08c.15-.16-.07-.26-.06-.39l.23-.02-.04-.1c-.09-.11-.13-.25-.17-.4-.07-.2-.15-.41-.19-.62-.03-.12-.1-.22-.1-.33,0-.1-.03-.17-.08-.25l-.06-.16c-.05-.14-.05-.31-.23-.36.03-.15.03-.14-.1-.2l-.25-.11q-.15.07-.34-.12l.07-.2c-.1,0-.18-.02-.25-.02l-.3-.02c-.17,0-.34.06-.49.02-.23-.06-.47,0-.71-.05-.26-.05-.53-.01-.79-.05-.13-.02-.21,0-.27.1-.43-.05-.83-.08-1.25-.12v.15s-.1-.03-.1-.03l-.24-.05c-.1.02-.17,0-.23-.08l-.22.1-.16.03c-.2-.01-.4-.03-.58-.05-.15,0-.31-.03-.45-.05-.18-.03-.25,0-.35.18-.14-.06-.3.12-.42-.06-.15.09-.31.06-.47.02-.13-.03-.24-.03-.37,0-.15.02-.31.04-.46.02-.15-.02-.31.08-.45-.03l-.08.03c-.17.03-.35.07-.52.09-.16.02-.32-.05-.49.04h-.02c-.17-.02-.36-.03-.53-.07-.12-.03-.21-.01-.33.05-.09.06-.22.11-.33.11-.13,0-.24,0-.38.02l-.18.02c-.1-.02-.19-.03-.28.06l-.15.02-.03-.11c-.1,0-.2-.02-.28,0-.21.04-.43.04-.62.13h-.18s-.12-.01-.12-.01c-.09.1-.19.07-.3.07-.21,0-.43-.01-.65-.01l-.07.02c-.16-.01-.33-.02-.48-.03l-.1-.07c.26-.14.54-.22.78-.31v-.02c-.1-.02-.18-.03-.28-.03l.14-.06c.1-.02.22-.02.29-.09.12-.11.24-.13.39-.1l.08-.02-.1-.19c.14-.03.23-.16.4-.1l.13-.08.12-.13c.08-.01.17-.03.26-.04.1,0,.18-.04.22-.14l.15-.05.22.14.19.03.16-.06c.21-.11.43,0,.64-.06l.08.02c.09,0,.19.01.29.01.16,0,.33-.03.48-.03l.13.06-.17.13c.21-.03.39-.05.55-.07l.22.02h.17c.11-.03.19-.04.3-.02.2.06.4.14.62.1h.15s.2.06.2.06v.04l-.23.07.21.08.23-.02h.22c.1-.02.19-.02.23.1l.06.03.2.05-.04.2c.19.1.23-.08.32-.14l-.05-.15-.02-.16c-.06-.1-.02-.15.1-.15l.14.03.17.08v-.14s-.12-.1-.12-.1c-.11-.12-.1-.16.03-.28l.02-.03c-.08-.09-.16-.2-.26-.26l-.1-.22c.03-.15-.02-.27-.08-.4l-.17-.17c-.12-.03-.18-.09-.13-.24h-.35c-.05-.11-.16-.1-.27-.1l.06-.16h-.19v-.16c-.16.02-.31.05-.47.08l-.1-.03-.03-.07-.13.04-.17.03-.12.03-.21.09-.19.04-.2-.03c-.21.03-.41.12-.63.09,0,0-.24.07-.36.07-.23.01-.46.07-.69.1l-.11.02c-.13-.03-.23.03-.34.07l-.15.06-.24.06c-.07.04-.15.03-.19-.09.13-.03.25-.05.38-.09l-.21-.05c-.13.07-.29,0-.41.09h-.05c-.12-.11-.27-.07-.41-.07h-.11s-.22-.07-.22-.07l-.07-.04.06-.13c-.08-.11-.16-.21-.24-.31-.14-.2-.3-.39-.42-.59l-.16-.12-.02-.13c-.17.1-.17.1-.32-.02l-.1-.03-.09-.04-.2-.21q.07-.11,0-.26l-.08.14c-.12.11-.24.15-.4.12-.11-.02-.22,0-.3.06l-.12.05v-.16s-.04-.01-.04-.01l-.12.17c-.17-.03-.33-.03-.5.02-.3.08-.6.1-.89.19-.38.11-.79.13-1.15.3l-.11.02-.21.08-.31-.02c-.14-.17-.29-.32-.43-.49-.09-.11-.19-.22-.21-.37l-.07-.11-.07-.21v-.12c-.17.05-.36,0-.5.12l-.04.02c-.11-.06-.21-.02-.33,0-.16.03-.35-.02-.55-.03l-.06-.23"/>
      <polyline class="cls-1" points="114.46 33.15 114.33 33.15 114.37 33.16 114.46 33.15"/>
      <path class="cls-1" d="M114.01,33.17l.1-.02.11-.02c-.15,0-.26-.01-.31-.02v.07s.02,0,.02,0h.08"/>
      <polyline class="cls-1" points="113.91 33.13 113.91 33.12 113.91 33.13"/>
      <path class="cls-1" d="M114.83,33.16l.12-.02-.12-.02c-.12.02-.24.02-.36.03.12,0,.23,0,.33.01h.04"/>
      <polyline class="cls-1" points="114.25 33.11 114.22 33.14 114.33 33.15 114.25 33.11"/>
      <path class="cls-1" d="M213.72,45.37c-1.15.01-2.45.33-3.41-.1-1.77-.78-3.44-.48-5.19-.31-1.76.16-3.54.14-5.29.29-1.27.1-2.53.33-3.8.49.05.23.1.46.16.69,6.81-.54,13.69.71,20.45-.92-.97-.17-1.95-.13-2.92-.13"/>
      <path class="cls-1" d="M126.36,35.28h-.12s.12,0,.12,0M122.03,42.14c-1.15.01-2.45.33-3.42-.1-1.77-.79-3.43-.49-5.19-.31-5.59.57-4.27.09-5.29.29-1.65.31.29,1.13,2.29,1.05,4.58-.2,9.19.33,13.73-.62l.07.11.05.08.19.02h.02c.06-.07.17-.06.22-.15l.05-.05.05-.1v-.03s.15-.05.15-.05l-.14-.02c.02-.12.07-.23.08-.34.02-.13.08-.23.11-.33l.03-.08q0-.18.08-.32c-.12-.08-.2-.2-.28-.32l-.04-.05-.05-.14c-.02-.18-.02-.37-.03-.55-.01-.1-.03-.2-.07-.3l-.12-.1-.1-.08c-.03-.13-.08-.25-.1-.38-.03-.1-.03-.22-.03-.32-.01-.13,0-.25.05-.36l.03-.1c.04-.1.08-.1.18-.1.14,0,.28,0,.41,0,.16,0,.31-.08.46-.06h.05c.12-.07.25-.03.36-.04h.03c.13-.06.26-.07.39-.06h.06c.14-.07.34,0,.38-.06l.2-.03.11-.15.14-.03.11-.08.05-.06.06-.16-.02-.18-.07-.23c-.06-.08-.11-.16-.13-.26l-.05-.03-.12-.14-.03-.1.14-.07h.13l.08.03.16-.02h.27s.25.02.25.02v-.05s.06-.04.06-.04c.09.03.17-.04.26-.02h.03c.22-.02.42.05.62.05.14,0,.27,0,.4.02l.1.03.21.1h.04c0-.08-.13-.03-.1-.12.11-.04.17.03.25.1l-.03.07.05.05.2.1c.18.05.23-.15.31-.1l.22.07.13-.09.14-.19-.04-.1.04-.07.02-.2v-.12s.05-.16.05-.16l-.05-.11c-.06-.02-.14.09-.19-.02-.07-.11-.07-.12-.01-.19l-.26-.18-.03-.09-.12-.05-.06-.02c-.09-.03-.2-.04-.29-.1-.08-.04-.18-.06-.28-.07-.14-.02-.25-.09-.38-.15l-.05-.07-.05-.11.03-.05v-.08s-.22-.22-.22-.22c-.1-.02-.1-.03-.11-.12-.01-.1-.01-.19.02-.28v-.06s-.02-.23-.02-.23l.05-.14-.08-.02c-.1.06-.13-.01-.16-.06l.04-.17.16.07.05.02.22.02c.22.07.42.18.61.29.13.08.26.14.39.22.1.06.21.1.3.18l.21.14c.09.06.17.13.27.19l.18.1c.1.04.19.1.33.08l.11-.16.13-.04.03-.07c.03-.11.03-.23.12-.33l-.06-.1.04-.07-.02-.02-.08-.02-.05-.13-.16-.16-.2-.14-.19-.08c.1-.05.16-.05.24-.04l.07.02c.2-.02.39.01.58.05.15.02.29.05.43.08h.11l-.05-.1.24.05-.05.05-.05.02.09.02h.2s.11.03.11.03l.24.05.03-.08.12.03c.22.12.43.23.62.4l.16.1h.08l.11.02c.07.07.15.03.17-.07v-.1s.2.03.2.03c.1.06.21.1.32.14.12.05.23.09.35.13l.14.05.03.02.18.11.03.03.19.04c.1,0,.18.06.28.1l.1.05c.15.07.3.14.45.21l.05.05c.11.1.24.15.39.12l.08.02.16-.04.05-.13c.06-.12.09-.26.06-.41.04-.09.06-.19.08-.29l.04-.05-.08-.15h-.05s-.17-.02-.17-.02c-.07-.09-.18-.11-.27-.16l-.24-.07h-.07s-.19-.05-.19-.05c-.1-.03-.2-.07-.29-.09-.17-.03-.32-.1-.47-.16-.09-.03-.18-.06-.27-.03l-.1-.02-.14-.06c-.09,0-.11-.02-.14-.13l-.06-.02h-.15s-.15-.02-.15-.02l-.18-.15h-.09s.13.07.13.07l-.12.03-.2-.09-.21-.09-.19-.05-.11-.05c-.1-.02-.19-.03-.29-.06h-.04s-.23.02-.23.02c-.17-.06-.33-.13-.5-.19l-.23-.08c-.1-.05-.21-.1-.32-.15-.13-.07-.27-.13-.4-.19l-.05-.05-.05-.03c-.24-.07-.46-.18-.69-.28-.14-.06-.28-.1-.43-.16-.17-.07-.35-.14-.52-.22l-.08-.04.12-.02c.18.04.35.08.54.11l.25.08c.18.05.36.1.53.17.11.04.24.06.36.11.11.06.23.08.34.11.12.05.23.08.35.1.17.04.32.13.49.18.1.02.19.05.29.08.14.04.29.09.43.13.16.06.34.12.51.18.18.07.37.13.56.18l.05.03.23.07.21.05c.15.04.31.07.46.11l.11.03c.1.02.18.08.28.02h.15v-.03s-.03-.03-.03-.03c-.15-.08-.3-.17-.46-.26-.19-.1-.39-.19-.59-.28-.16-.07-.32-.12-.48-.18-.15-.05-.32-.09-.48-.14-.1-.03-.21-.05-.31-.1-.1-.06-.22-.07-.34-.11-.19-.05-.38-.09-.57-.15-.12-.02-.22-.05-.33-.09-.1-.03-.2-.06-.3-.08l-.22-.06h-.18s-.04-.02-.04-.02c-.21-.1-.45-.13-.68-.19-.09-.02-.18-.02-.28-.04l-.21-.07c-.18-.03-.36-.07-.54-.11-.11-.03-.23-.05-.35-.07-.1-.02-.2-.04-.31-.06-.15-.03-.28-.06-.44-.09l-.18-.15-.08-.1h-.14s-.08.02-.08.02c-.1-.02-.19-.02-.26.07l-.05.03-.08.07-.11.12-.03.07.07.05.11.06.11.02h.13l.12-.02.11-.04c.14-.01.26.05.39.1.17.07.33.13.48.2.18.08.35.17.51.26l.23.11.08.06v.03h-.18c-.26-.07-.52-.11-.79-.17-.11-.02-.21-.05-.32-.07-.13-.03-.26-.05-.39-.07-.23-.05-.48-.09-.73-.13-.18-.03-.37-.05-.56-.08-.13-.01-.25-.04-.38-.07-.12-.02-.24-.04-.37-.06-.14-.01-.26-.05-.38-.1-.12-.05-.25-.08-.37-.11-.16-.04-.33-.09-.48-.16-.2-.1-.43-.17-.63-.24l-.05-.02-.17-.05-.11-.06-.05-.03-.21-.05-.06-.03-.19-.05-.03.13c-.12.01-.23.05-.33.03h-.23c-.08-.08-.19-.06-.3-.08v.07l-.04.13-.04.07c-.01.09-.07.16-.12.22-.08.1-.18.19-.26.3h-.18s-.13-.04-.13-.04l-.07-.02c-.22-.1-.46-.11-.69-.18-.16-.05-.35-.06-.53-.11-.09-.03-.19-.03-.29-.01l-.08-.11h-.02s-.01.11-.01.11l-.06-.02-.18-.03c-.1.02-.17-.01-.24-.08l-.05-.08v.15l-.12.13-.05.03h-.06c-.09.08-.09.09-.2.03v.07s-.1.07-.1.07c-.08.12-.16.24-.25.35l-.15.18.04.08-.04.02-.14.03h-.06s-.25.04-.25.04h-.03s-.23-.05-.23-.05l-.13.03.23.05-.11.05-.14-.04-.1-.03-.19-.05h-.07c-.13-.02-.28-.06-.41-.06l-.2-.03h-.02c-.13,0-.25-.05-.37-.06l-.12.02-.11-.02-.13-.05-.07-.02-.1-.02-.07-.03-.02.05h-.06c-.09,0-.18-.02-.28-.04v.1h-.11l.04.1-.17.05h-.2c.03.09,0,.13-.08.15l-.1.1-.05.23-.06.13-.15.15v.02l.03.16-.07.06v.09s.09-.06.09-.06l.08-.02.06.09v.1s-.04.08-.04.08c.05.03.08.14.19.09l-.02-.13.12-.03.03-.02.15-.06h.13s.14,0,.14,0l.12-.05-.14-.04v-.03l.12-.03h.08c.13.02.25-.03.38-.05h.27s.13,0,.13,0c.1.01.21.02.33.04l-.11-.08.07-.03c.11,0,.21.02.31.02h.17s.05-.02.05-.02c.12.04.25-.03.38.03l.1.04.11-.02.12-.08.1.03.13.08.16.02.07.08.07.05c.1-.04.16.04.24.06l-.06.11h.05c.09,0,.16,0,.23.07l.17.06.08.03h-.16v.03c.15.06.31.1.46.19l-.05.04c-.1,0-.2.02-.29.02h-.04c-.13,0-.26,0-.39,0l-.17-.05h-.18c-.12-.05-.24-.04-.37-.07h-.17s-.02.06-.02.06h-.1s-.16-.04-.16-.04h-.11s-.23-.02-.23-.02l-.19-.06-.2-.03c-.1.03-.21.03-.32.04h0c-.1-.05-.2,0-.31-.02-.09-.02-.2-.03-.3-.05l-.04-.02c-.08.07-.18.01-.27.02-.1.02-.19,0-.28-.01h-.22c-.08.03-.18.04-.27-.01-.08.11-.17,0-.25.04-.07-.11-.11-.13-.22-.11l-.14.02.03.03h0s0,0,0,0h-.19c-.1,0-.2,0-.31.01l-.09-.02h-.02s-.02,0-.02,0c-.12.02-.23,0-.35.02l-.03.02h-.07s0,0,0,0l-.26-.02h-.06s-.12,0-.12,0h-.15s.04.13.04.13q-.11.12-.2.08l-.15.07q-.08.03-.06.12c-.11.02-.11.13-.15.21l-.03.09-.05.15-.06.19c-.03.13-.07.25-.11.37l-.1.23-.02.06.14.02c0,.08-.13.13-.03.22l.12-.03.08.15-.04.17c.09-.07.19-.07.3-.07l.08-.04.17-.06c.04-.1.13-.12.22-.16.13-.05.25-.05.36-.08l.18-.06.32-.1.1-.03s1.27-.42,1.43-.42c.12,0,.23.02.35-.02h.2c.1.02.2.02.31.02l.08-.02.16.02c.15.01.3-.02.44.02h.11c.12,0,.24,0,.36.01h.06s.09,0,.09,0h.3s.17,0,.17,0h.03c.1.08.22.07.34.1l.24.07.09-.02.1-.04c.15.06.3.03.45,0h.22c.08.03.16.07.25.03h.12c.16.04.33.05.5.04.08,0,.17,0,.26,0h.08s.1.02.1.02h.1s.15-.05.15-.05c.1,0,.2-.03.3-.04l.13-.07c.11.01.23.02.35.03l.05.02-.06.08c.11.02.22.02.34.02l-.04-.07h.11s.2.01.2.01h.25c.2.02.39.05.58.11h.02c.13-.02.24.04.36.06l.07.02.15.09.15.11v-.1h.04s.06.05.06.05l.15.06.09.04.24.14.07.02.14-.02c.1.02.18.1.29.07h.05s-.02-.05-.02-.05c-.03-.1-.01-.11.09-.13.1-.01.18.01.27.03q.08.03.09.12l.19.12-.05.04c-.11-.01-.23.07-.34.03l-.16.02-.2.03-.07-.04h-.15s-.12.04-.12.04c-.11,0-.21.03-.32-.02v-.02c-.15.06-.28.03-.41.02-.09-.02-.2.01-.29.02h-.17c-.11.03-.18-.02-.26-.08-.1-.08-.23-.11-.36-.1h-.01c-.13-.08-.28,0-.4-.06-.06.1-.09.13-.21.1l-.12.04-.09-.07-.05.03-.08.09-.04.04c0,.09-.07.11-.15.14l.04.23-.11.1-.06.15.03.06-.12.11-.07.17s.11-.03.11.06l-.06.06-.07.1.07.09h.14l-.05.11.04.05c-.08.06-.03.16-.13.23q.13,0,.21-.07h.2s.19-.03.19-.03h.08c-.09-.08-.17-.09-.25-.06l-.13-.03.15-.06.15.02c.2,0,.41,0,.61,0l.16-.03h.07c.1.04.2.08.3.13.1.05.23.1.33.18h.02s.16.02.16.02l.15.06.16.05c.16.06.31.13.47.19v.03l-.07.03c-.16.03-.33.06-.48.09l-.11.03c-.1.05-.21.1-.31.14h-.11s-.1.15-.1.15c-.08.07-.15.15-.15.28v.05s.05.24.05.24c.03.12.02.25.04.37.02.1.03.21.08.3.05.1.05.21.08.31.03.11.06.23.08.36l.04.16-.03.05s.14.54.19.63l.03.37s.25.27,0,.2l-.21.18v.09c.03.11.01.22,0,.35l.03.26.02.06c-.66-.04-1.33-.03-1.99-.02"/>
      <path class="cls-1" d="M157.27,39.93c.21-.08.35-.02.56.18-.28.04-.44.07-.56-.18M170.78,7.98c-.06.25-.26.4-.6.3-.79-.25-1.61-.46-2.42-.67-.2-.05-.43-.05-.63,0-.58.15-1.1.22-1.68-.08-.62-.3-1.28-.62-1.96-.73-.51-.09-.96-.25-1.43-.44-.41-.15-.8-.29-1.2-.45-.33-.13-.64-.27-.96-.42.13-.14.22-.16.31-.15.62.07,1.25.26,1.87.22.89-.04,1.75.13,2.63.22.27.03.54.12.81.12,1.04-.03,2.06.11,3.07.34.37.08.82.28,1.12.15.57-.25.89.15,1.37.27-.1.46-.16.91-.3,1.32M358.62,52.32c-1.27-.64-9.97-.36-13.93-.33-2.94.02-11.45-.63-17.5-.57-14.35.15-92.94.29-107.23.58-3.79.07-7.48.07-11.15.04h-.16c-.92,0-1.85-.02-2.77-.03-.36-.03-.66-.08-.82-.16-1.52-.77-3-.51-4.58-.59-6.04-.28-12.28.63-18.2-.3-.49-.08-1.14.04-1.7.06-4.48.21-8.82.32-13.11.35-.17-.01-.33-.05-.49-.11-.84.01-1.04.15-2-.17-.29-.05-1.23.32-1.71.08-.21-.11-.39-.2-.57-.3.19-.08.4-.15.51-.36.05-.1.15-.15.21-.24.08-.12.21-.25.21-.39.02-.64.31-1.23.4-1.84.07-.49.31-.91.46-1.35.03-.11.09-.23.1-.34.06-.76.05-.76.37-1.34-.49-.34-.83-.82-1.13-1.34l-.18-.2c-.18-.15-.23-.33-.23-.56-.03-.76-.05-1.53-.13-2.3-.03-.42-.15-.85-.28-1.25-.06-.23-.25-.41-.52-.45-.2-.03-.31-.15-.36-.34-.15-.52-.35-1.03-.46-1.55-.09-.44-.09-.89-.12-1.34-.05-.51,0-1.02.16-1.51.05-.14.09-.29.16-.42.19-.38.32-.41.76-.39.57.02,1.14-.03,1.71-.02.66,0,1.29-.31,1.96-.22h.18c.48-.28,1.01-.14,1.51-.2h.13c.51-.23,1.04-.25,1.59-.22l.21-.04c.62-.26,1.45.04,1.61-.24.19-.31.51-.31.82-.11.43.26.34-.4.49-.62.19-.04.38-.05.57-.1.2-.05.4-.11.43-.38l.21-.23c.21-.17.24-.41.24-.65,0-.25-.04-.5-.07-.75-.04-.33-.04-.69-.27-.97-.25-.31-.46-.64-.51-1.05l-.21-.14c-.2-.1-.37-.2-.41-.44l-.09-.16c-.12-.12-.26-.3-.12-.43.15-.14.39-.27.59-.25.2.02.36.05.56,0,.07-.02.18.08.31.14.19-.17.38-.24.67-.09.16.08.41.01.61-.02.18-.03.34-.12.5.03.36-.21.68.14,1.05.05l.05-.24.18-.17c.36.13.72-.16,1.08-.05l.13.03c.87-.12,1.73.17,2.59.17.55,0,1.09.05,1.62.09.14.02.28.09.42.14.29.13.48.3.58-.09.46-.18.73.15,1.05.4,1.1.53,1.89.29,2.23.55.18.13.36.26.61.21.11-.02.23.06.31.07.2-.13.36-.26.56-.4-.02-.36.29-.56.59-.78-.05-.13-.11-.25-.18-.39l.18-.26c.33-.27.24-.58.09-.86-.1-.18-.1-.32-.02-.49.08-.2.14-.43.23-.67-.07-.13-.14-.3-.22-.44-.28-.08-.57.36-.81-.08-.26-.45-.27-.47-.04-.81-.35-.25-.71-.48-1.05-.74-.08-.07-.09-.23-.14-.37-.16-.06-.34-.13-.51-.2l-.25-.11c-.41-.14-.82-.15-1.22-.4-.33-.21-.77-.24-1.16-.29-.59-.07-1.06-.4-1.59-.62-.09-.03-.16-.17-.21-.26-.06-.13-.1-.28-.18-.46l.1-.21c.04-.11.07-.23.05-.35-.01-.22-.71-.89-.94-.92-.39-.05-.44-.12-.49-.5-.05-.41-.06-.81.11-1.19l.02-.26c-.2-.29-.11-.61-.14-.93-.02-.18.13-.4.21-.64-.1-.02-.27-.11-.35-.07-.4.25-.56-.03-.72-.24.07-.25.12-.45.19-.72.21.08.43.18.66.28l.25.06c.33-.3.63,0,.91.08.91.29,1.73.74,2.53,1.25.52.33,1.1.56,1.63.87.41.25.89.42,1.24.79.23.25.58.38.87.57.36.25.72.53,1.1.77.25.17.51.35.77.45.41.16.79.4,1.35.31.13-.15.31-.39.5-.64.18.01.41.06.54-.16.06-.1.14-.19.16-.29.1-.48.13-.99.47-1.41-.08-.12-.15-.25-.24-.37.06-.1.11-.2.16-.3l-.07-.08c-.12-.05-.23-.07-.33-.12-.31-.17-.32-.23-.19-.54-.24-.23-.51-.42-.69-.68-.21-.29-.47-.44-.79-.56-.23-.08-.45-.2-.78-.34.38-.19.66-.18.95-.16.11,0,.21.05.3.04.84-.05,1.64.07,2.45.23.6.11,1.2.22,1.81.32.13.02.27,0,.45,0-.06-.13-.11-.21-.22-.4.37.07.65.12,1.02.2-.12.1-.16.14-.21.17-.06.03-.11.05-.24.12.18.04.29.06.38.06.29.01.58,0,.86.02.15,0,.3.07.47.11.33.07.66.14,1,.21.06-.13.09-.21.14-.32.16.05.35.07.5.15.89.46,1.76.97,2.55,1.6.2.16.42.3.64.41.09.05.23.02.34,0,.17-.03.31-.06.49.09.29.26.61.11.68-.3.02-.14.02-.29.03-.45.29,0,.54-.03.8.11.42.24.87.41,1.33.6.48.2.98.36,1.47.55.19.07.39.15.57.22l.13.05c.36-.02.58.18.78.46l.12.11c.26.07.53.2.79.2.44-.01.78.23,1.14.41.13.06.28.11.41.17.62.29,1.24.58,1.87.87.1.04.15.13.23.2.46.42.99.65,1.64.52.09-.01.22.06.32.11.3.2.47.15.69-.15.11-.16.12-.36.18-.53.24-.56.34-1.11.24-1.7.19-.39.28-.79.33-1.21l.18-.24c-.09-.19-.18-.39-.29-.64-.05.02-.17.03-.28.06-.28.1-.53.07-.69-.14-.29-.38-.74-.47-1.14-.64-.31-.14-.66-.2-.99-.29l-.26-.05c-.27-.05-.54-.06-.8-.14-.41-.14-.82-.28-1.25-.36-.68-.12-1.3-.43-1.94-.67-.36-.15-.73-.26-1.15-.14-.11.04-.28-.06-.42-.1-.19-.06-.38-.18-.58-.2-.38-.06-.44-.1-.56-.54l-.27-.09c-.21-.14-.39-.1-.59.02-.28.17-.41.1-.63-.14-.22-.23-.49-.44-.76-.61-.08-.06-.24,0-.36.07.16.06.33.13.53.21-.18.22-.36.18-.52.12-.28-.12-.55-.23-.82-.36-.27-.12-.54-.24-.87-.38-.27.21-.52.07-.79-.18-.12-.12-.31-.18-.48-.22-.4-.1-.79-.15-1.18-.23l-.17-.04c-.33-.3-.63-.19-.94.13-.69-.26-1.38-.52-2.09-.78-.3-.12-.62-.21-.92-.34-.45-.19-.89-.41-1.33-.62-.56-.26-1.11-.52-1.66-.79-.09-.05-.17-.12-.25-.19l-.18-.13c-1-.26-1.91-.78-2.86-1.16-.59-.23-1.19-.41-1.77-.65-.74-.31-1.47-.63-2.19-.96-.1-.04-.2-.11-.33-.19.18-.16.33-.11.49-.07.73.17,1.46.33,2.19.49.35.1.69.23,1.04.33.75.21,1.49.43,2.21.73.48.2,1.01.27,1.48.48.46.22.94.31,1.41.49.47.18.97.33,1.47.43.71.15,1.32.54,2.01.73.4.11.81.23,1.21.35.59.18,1.2.35,1.81.54.7.24,1.4.52,2.11.76.77.26,1.54.51,2.3.76l.2.11c.31.1.59.27.95.26.28-.01.56.13.86.2.64.17,1.28.33,1.92.49.15.04.31.1.47.13.38.05.73.34,1.16.08.15-.09.42,0,.64,0l.02-.1-.17-.16c-.62-.36-1.24-.74-1.88-1.06-.8-.42-1.6-.81-2.43-1.17-.66-.27-1.33-.51-2.01-.74-.64-.22-1.31-.4-1.96-.59-.44-.13-.9-.19-1.29-.41-.44-.25-.93-.3-1.4-.43-.78-.25-1.59-.4-2.4-.6-.45-.11-.89-.25-1.34-.37-.42-.11-.83-.23-1.25-.34-.3-.08-.61-.15-.92-.21-.24-.05-.47-.23-.74-.08l-.16-.04c-.9-.41-1.87-.53-2.83-.76-.37-.09-.77-.11-1.14-.19-.31-.07-.6-.18-.9-.25-.75-.17-1.5-.31-2.25-.47-.48-.1-.97-.21-1.45-.31-.43-.09-.86-.15-1.28-.23-.61-.12-1.21-.25-1.81-.38-.36-.08-.58-.35-.79-.63-.1-.13-.18-.28-.3-.38-.27-.22-.27-.2-.58,0-.08.06-.22.1-.31.07-.41-.1-.79-.1-1.09.27l-.21.13c-.13.08-.25.16-.36.26-.16.16-.31.32-.45.49l-.09.31c.03.08.17.17.26.17.21.02.37.05.48.25.1.16.29.18.45.1.19-.1.38-.09.57,0,.17.07.32.07.45-.08.13-.15.31-.14.5-.16.59-.07,1.11.2,1.63.41.67.26,1.36.53,2.03.85.71.33,1.4.72,2.11,1.09.33.16.64.32.96.48.13.07.25.15.36.22l-.03.11c-.25,0-.51.04-.74,0-1.09-.28-2.17-.48-3.28-.68-.45-.09-.88-.23-1.33-.32-.53-.11-1.06-.19-1.59-.3-1.01-.19-2.01-.39-3.01-.55-.77-.13-1.55-.19-2.33-.31-.51-.08-1.02-.2-1.53-.29-.52-.09-1.04-.16-1.56-.23-.54-.06-1.05-.23-1.55-.44-.49-.21-1.02-.32-1.54-.45-.68-.18-1.34-.38-2-.67-.84-.38-1.73-.65-2.59-.97l-.21-.09c-.22-.12-.43-.23-.7-.23-.18,0-.35-.03-.47-.22-.03-.07-.12-.13-.21-.14-.28-.08-.57-.13-.86-.21-.1-.03-.21-.08-.26-.15-.22-.24-.47-.23-.76-.17-.06.21-.1.39-.15.56-.48.04-.94.16-1.37.09-.28-.04-.53-.17-.82,0l-.12-.03c-.35-.33-.79-.18-1.24-.33,0,.13,0,.23,0,.33.02.2.05.39-.17.51-.08.05-.15.17-.16.26-.04.39-.3.67-.52.93-.34.41-.71.79-1.04,1.21-.18.22-.56.22-.77.03-.16-.14-.32-.21-.53-.2l-.26-.05c-.9-.44-1.91-.47-2.86-.76-.72-.21-1.48-.27-2.19-.46-.43-.13-.82-.13-1.24-.05-.1-.15-.2-.3-.3-.44l-.07.03c0,.11-.02.24-.03.41-.12-.04-.2-.07-.27-.11-.24-.13-.5-.18-.77-.13-.39.06-.71-.05-.97-.32-.08-.08-.13-.2-.21-.34q-.18.32,0,.63c-.16.17-.31.35-.48.52l-.23.1-.25.09c-.36.29-.36.29-.79.05-.02.1-.02.2-.04.31-.17.02-.27.09-.39.28-.3.51-.68.98-1.03,1.46-.19.25-.38.49-.59.77.03.08.1.18.17.33l-.2.11c-.2,0-.39,0-.54.14l-.26.03c-.36-.01-.72-.1-1.05.15l-.13.02c-.28-.24-.69-.06-.99-.24-.18-.1-.35-.06-.54.14.33.08.63.15.95.22-.11.28-.3.31-.46.21-.18-.12-.39-.12-.59-.15-.13-.03-.26-.08-.38-.14-.25-.12-.51-.26-.81-.2-.08.01-.18,0-.27-.02-.57-.09-1.14-.24-1.71-.26-.3-.01-.56-.04-.82-.15l-.09-.03c-.54.09-1.03-.12-1.54-.21-.16-.03-.35.02-.52.06-.18.05-.31.03-.46-.08-.15-.11-.35-.16-.53-.23-.09-.03-.22-.02-.29-.07-.14-.11-.25-.12-.42-.07-.08.03-.18-.06-.31-.11l-.09.18-.25.06c-.37-.06-.75-.13-1.15-.2,0,.11,0,.24-.01.4h-.47c.05.13.09.25.16.42-.29,0-.53-.02-.69.22-.02.05-.17,0-.26,0h-.57c.11.38-.05.54-.33.6-.22.06-.33.2-.43.42-.13.32-.28.6-.18.97.04.18-.04.39-.25.54-.24.17-.41.43-.62.65l.03.08c.33.28.34.38.08.69l-.27.24c-.11.1-.17.21-.02.37.14-.07.28-.16.42-.21.12-.05.22-.09.35-.1.3-.02.4.12.25.37-.09.13-.15.21-.05.39.04.07.43.42.58.21.15-.21.32-.18.5-.11l.12-.09c.12-.29.34-.31.59-.23.18.07.34.1.55,0,.13-.08.38-.02.56.03.23.07.37,0,.52-.18-.2-.07-.38-.13-.57-.19v-.1c.16-.05.31-.1.48-.13.12-.02.25-.03.36,0,.54.09,1.04-.1,1.54-.24.26-.07.48-.07.74,0,.14.04.33.09.42.02.19-.15.36-.07.55-.03.43.06.85.11,1.37.18-.17-.14-.27-.22-.43-.34.14-.06.22-.13.31-.13.41.02.81.05,1.21.07.24,0,.48-.01.71-.03l.17-.03c.52.15,1.08-.13,1.58.13.13.07.28.1.4.17.18.09.3.13.46-.07.13-.15.33-.26.51-.36.17-.09.32-.08.41.12.1.25.3.32.53.35.22.03.44.06.66.09.2.03.3.13.31.33,0,.18.13.29.31.21.4-.18.62.16.97.23-.1.2-.16.32-.24.48l.19.05c.36-.07.66-.04.94.25.16.15.48.16.72.22.12.03.25.05.36.14-.23.01-.46.03-.69.03l-.02.08c.63.26,1.29.44,1.95.78-.12.1-.18.16-.23.16-.4.03-.81.05-1.2.06l-.18-.02c-.54,0-1.07,0-1.62,0-.24,0-.51.08-.72-.16-.04-.04-.19,0-.3.01-.14,0-.31.06-.44,0-.49-.24-1.02-.21-1.54-.32-.21-.05-.45-.02-.7-.02,0,.06-.03.15-.07.28-.13-.02-.32.02-.39-.04-.21-.23-.44-.18-.7-.15-.14.02-.3,0-.45-.03-.32-.06-.61-.09-.93-.06-.27.02-.58-.13-.83-.28-.26-.16-.49-.2-.79-.13-.43.1-.89.11-1.33.16h-.04c-.4-.21-.8-.05-1.2-.1-.43-.06-.86-.15-1.28-.23l-.16-.05c-.37.25-.76.02-1.13.07-.38.05-.78.02-1.15-.05-.31-.05-.6-.09-.92,0-.38.1-.77.18-1.17-.05-.3.45-.69,0-1.01.15-.26-.45-.43-.51-.88-.43-.36.07-.74.1-1.1.14-.47.05-.95.1-1.43.13-.12,0-.26-.04-.39-.08-.18-.07-.36-.15-.56-.23-.15.2-.33.25-.56.19-.2-.05-.41-.02-.59.12-.06.05-.17.04-.28.06,0-.13.01-.22.02-.37-1.02.1-2.03.19-3.07.29-.14-.26-.35-.29-.66-.25-.65.08-1.32.01-1.96.13-.58.11-1.15-.04-1.74.11-.38.1-.81-.02-1.22-.04-.1,0-.18.03-.26.04-.17.01-.32,0-.48.01-.18,0-.37.01-.63.02.07.18.12.35.16.51q-.46.48-.83.29c-.22.11-.41.23-.62.31-.32.12-.33.11-.24.47-.45.13-.45.55-.58.9-.05.13-.07.27-.14.4-.11.2-.22.37-.22.63,0,.27-.18.51-.24.79-.11.53-.3,1.03-.47,1.55-.1.33-.2.67-.43.97-.04.05-.05.14-.08.24.2.02.37.02.55.04.01.34-.5.57-.14.97.15-.06.32-.12.5-.19.11.21.22.4.35.61.06.23-.33.38-.15.71.37-.3.78-.31,1.21-.3.11.01.25-.09.33-.18.18-.21.38-.34.68-.24.2-.41.57-.52.96-.67.47-.19.98-.19,1.45-.35.24-.08.49-.15.71-.23.36-.12.7-.27,1.05-.39.1-.03.21-.01.3-.03.15-.04.31-.07.41-.15.18-.19.41-.23.63-.19.32.07.61-.03.92-.07.17,0,.33-.02.49-.04.18-.02.36-.05.53-.08.28-.05.55-.13.84-.16.12,0,.23.1.36.16.31-.26.66-.38,1.05-.27.18.05.31,0,.4-.15.14-.21.32-.25.54-.24.1,0,.21-.01.31-.03.5-.1,1-.25,1.5-.26.56-.02,1.1-.13,1.64-.22.73-.11,1.47-.17,2.2-.15.71,0,1.4-.04,2.11-.04.48,0,.95.07,1.43-.08.24-.07.53.02.8.03.43.02.87.04,1.3.03.16,0,.32-.07.37-.08.29.04.48.08.68.09.6.04,1.2-.08,1.79.1.14.04.3-.04.46-.03.49.02.99.06,1.5.09.09,0,.2,0,.26-.03.13-.08.22-.04.37,0,.15.05.36.05.52,0,.24-.1.45-.1.69-.04.22.05.45.03.67.04l.18.04c.41.31.92.28,1.4.38.34.08.66.17.98.29.16.06.3.09.39-.09.09-.2.23-.2.42-.13.62.21,1.25.1,1.89,0,.29-.04.61-.03.9.03.35.07.67.23,1.04.08.15-.05.33-.03.49,0,.69.2,1.4.22,2.1.17.35-.03.72-.01,1.08-.01.12,0,.25.04.36,0,.17-.07.29-.03.41.08.11.12.29.17.4.04.18-.21.38-.23.63-.25.41-.03.82-.1,1.25-.15.05-.28.26-.35.53-.31.48.05.96.1,1.43.16.06,0,.1.03.21.06-.09.11-.17.19-.27.32.48.11.94.09,1.43.07-.07-.11-.11-.2-.18-.3.15-.11.31-.09.46-.02.27.11.51.15.82.09.33-.07.68.03,1.03.03.82,0,1.6.18,2.38.4l.13.02c.52-.1.98.15,1.45.26.1.02.2.08.3.08.27,0,.45.13.59.34.16.21.34.38.63.44v-.38h.14c.1.07.23.11.29.2.14.26.31.34.6.26.17-.05.28.01.39.14.25.33.58.48.97.58.11.03.2.06.3.09.27-.25.25-.21.59-.1.4.13.75.41,1.2.33l.18-.05-.05-.18c-.15-.41-.05-.47.37-.53.39-.07.74.03,1.1.11.35.08.35.08.37.51.24.15.5.3.77.47l-.18.14c-.48-.04-.93.27-1.44.13-.23-.07-.43.02-.66.09-.26.08-.54.11-.82.12-.1,0-.22-.09-.31-.17-.25-.21-.38-.24-.61-.01-.15.15-.3.18-.48.18-.43,0-.88.12-1.3-.09h-.09c-.53.19-1.08.09-1.63.03-.4-.04-.8.06-1.2.07-.23.02-.49-.05-.7,0-.45.11-.74-.1-1.07-.36-.43-.33-.96-.43-1.49-.4h-.04c-.52-.3-1.13,0-1.65-.23-.23.41-.38.51-.9.4-.21-.04-.35-.02-.47.16-.13-.1-.23-.18-.36-.28l-.18.16c-.08.18-.12.36-.37.39l-.14.15c-.02.38-.3.48-.64.59.05.32.1.63.14.96-.15.13-.34.25-.47.43-.12.17-.17.39-.28.62.05.06.11.15.18.24-.08.26-.31.35-.51.48-.23.16-.44.35-.3.69.14.07.43-.12.46.26-.07.06-.18.13-.25.22-.1.12-.21.26-.27.41-.08.23.04.36.3.36.16,0,.33,0,.57,0-.08.18-.14.31-.2.44-.11.56.55.61.8.4.18-.2.4-.23.64-.21.21.02.42.05.63.05.84,0,1.69,0,2.52.02.25,0,.48.15.69-.13h.3c.41.16.82.34,1.22.54.46.24.97.4,1.38.74l.03.02c.22.04.44-.19.68.07.12.14.4.16.59.23.23.07.46.13.68.22.66.25,1.31.51,1.96.76l.02.1c-.1.05-.18.13-.28.15-.67.14-1.36.26-2.03.4-.15.03-.29.08-.43.13-.44.18-.87.38-1.32.56-.13.05-.29.04-.46.05-.02.24-.18.4-.37.57-.34.31-.65.67-.63,1.19v.21c.32.28.17.65.22.98.09.51.07,1.03.16,1.55.07.42.17.86.36,1.24.21.43.21.87.33,1.29.14.49.25.99.37,1.48.06.23.12.46.17.69l-.1.23h-.25l-.22-.16c-.41-.33-.9-.52-1.36-.77-.23-.12-.49-.18-.81-.3.11.13.19.24.28.35-.15.13-.28.07-.4.02-.35-.17-.71-.32-1.05-.51-.18-.1-.35-.24-.26-.5.03-.08-.01-.2-.02-.3-.32-.07-.43.47-.8.2.02-.05.05-.13.08-.24-.22-.14-.43-.31-.74-.33-.2-.01-.38-.2-.59-.33-.05.05-.11.12-.26.28-.05-.1-.09-.18-.13-.25-.1-.19-.22-.24-.4-.08l-.24.08c-.55-.26-1.17-.33-1.68-.71-.29-.23-.63-.41-1.04-.18-.27.16-.58.18-.87-.08-.13-.11-.36-.12-.54-.16l-.18-.02c-.54-.19-1.1-.19-1.64-.34-.21-.06-.38-.22-.65-.15-.21.06-.46.02-.75.02l.16.14c.33.25.8.25,1.09.62.13.16.41.21.68.19.23-.01.46.05.69.11.4.11.8.25,1.2.37l.13.04c.64-.03,1.19.29,1.78.48.93.28,1.86.56,2.78.85.31.1.59.26.94.26.22,0,.43.25.65.38.38.24.78.45,1.15.7.29.2.56.42.84.64.3-.35.34-.36.7-.15.29.18.62.36.44.81l.06.15q.19.36-.08.65l-.09.13.19.23c.27.4.55.78.79,1.2.1.2,0,.46.14.67.12.18.16.42.25.62.15.34.18.69.05,1.04-.04.12-.06.26-.02.39.13.47.06.94.05,1.43-.02.36.08.74.14,1.09.03.23.14.44.15.66,0,.18.07.33.17.45h-.18c-.16-.01-.33-.01-.48.01-.62.09-1.24.2-1.86.28-.3.03-.6-.01-.9,0-.24.02-.48.1-.71.09-.47-.01-.92-.08-1.38-.11-.1-.01-.18-.03-.26-.02-.46.05-.91.08-1.35-.12-.11-.05-.29.02-.43.08-.64.27-1.24.67-1.95.8l-.17.06c-.3.09-.54.13-.76.15-.23,0-.46,0-.69,0-.19,0-.37,0-.59.01-4.43.07-29.16.18-33.56-.37-3.52-.24-5.53,1.18-9.57.9-3.3-.22-6.59.88-8.67.76-1.53-.08-2.01.23-2.65.3-2.24.22-3.69.28-5.95.48-1.49.13-15.58.54-20.58.76-.81.03-1.15.28.09.33,6.65.28,19.57.71,23.77.57,1.45.1,7.59.4,10.18.33,1.93-.06,4.22.34,6,.84l-.03.13c-2.09.12-4.18.24-6.28.37,4.01.21,7.98.36,11.96.23,9.4-.32,39.11-.64,48.48-1.21,4.21-.25,8.23-.12,12.31.06,1.68.07,3.41.26,5.06.15,6.23-.41,12.38-.71,18.62-.32,8.23.52,21.51-.6,24.73-.94,5.43-.02,75.06,0,80.43.07,10.03.13,11.46-.45,21.5.02,5.68.26,12.31.01,18.44-.21,3.6-.12,12.77-.19,14.85-.81.38-.12,1.76-.18,2.75-.22,3.42-.11,1.4-.21,4.84-.29-21.04.49-21.17-.94-.09-.48-1.28-.02-3.6-.33-6.92-.29"/>
      <path class="cls-1" d="M78.36,170.36l-3.71-.23-.24.18.17,5.21.42.35,1.7-.03,1.35-.38.21-1.01.21-1.34-.1-2.77ZM81.35,177.11l-2.32,1.03-4.34.25-.48.66-.38,2.7.11,3.75-1.11.83-1.46-.15-.66-.63-.07-2.04.18-3.05.24-5.04-.1-3.4.35-3.88.97-.48h6.94l1.88.83.76.98.17,6.1-.66,1.53Z"/>
      <path class="cls-1" d="M96.09,170.58l-.76-.86-2.98.05-.14,2.7-.21,1.16.07,2.07.73-.03,2.7-.23.73-.83-.14-4.03ZM99.57,185.88l-1.6.68-.9-.15-.77-.83-.52-1.87-.28-1.16-.52-1.16-.49-2.22-.52-.83-.97-.51-.66.03-.7.53.18,5.92.03,1.16-.45.53-.42.3-1.46.03-.9-.98-.07-10.13-.04-.83.11-4.91.38-1.18.24-.18,1.6-.5,1.18-.18,4.23.28,1.39.45.73.51.69,2.16.07,2.04.11,3.35-1.8,1.89.52,1.34,1.53,4.91.52.45-.45,1.06Z"/>
      <polygon class="cls-1" points="117.3 185.68 116.36 186.41 107.55 186.56 106.57 185.7 106.26 177.44 106.57 172.22 106.47 169.53 106.92 168.52 107.3 167.99 108.48 167.43 111.71 167.74 114.56 167.66 115.22 168.49 115.94 168.47 115.98 169 115.25 169.37 110.18 169.8 109.7 170.1 109.59 173.33 109.63 174.34 110.15 175.37 110.63 175.67 114.83 175.75 115.77 176.63 115.32 177.79 114.45 178.17 110.01 178.37 109.56 179.43 110.11 181.6 109.91 182.6 109.97 183.99 110.46 184.29 114.18 184.04 115.77 184.01 116.78 184.34 117.44 185.02 117.3 185.68"/>
      <polygon class="cls-1" points="136.49 185.83 135.52 186.56 134.89 186.56 133.64 185.88 132.98 179.5 132.53 178.44 130.8 181.87 130.07 182.25 127.71 182.1 127.05 181.77 126.29 180.08 126.01 178.9 125.52 178.57 125.14 179.27 125.04 183.84 124.83 185.2 124.86 185.68 123.41 186.41 122.26 186.05 121.77 185.6 121.67 181.85 122.05 179.32 122.19 175.27 122.16 174.74 122.64 174.39 122.12 172.93 121.95 168.37 123.06 167.63 124.52 167.43 125.94 168.46 126.49 171.16 127.99 174.84 128.51 176 128.92 176.5 129.17 176.68 129.86 175.5 130.28 173.81 130.9 172.62 131.32 170.91 132.46 168.19 133.33 167.48 135.66 167.61 136.56 168.29 136.18 176.23 136.6 181.6 136.63 182.78 136.49 185.83"/>
      <polygon class="cls-1" points="145.65 186.32 143.64 186.34 142.67 185.72 142.39 176.74 142.35 175.59 142.91 169.99 142.87 168.48 143.99 167.65 144.71 167.75 145.1 167.75 145.58 168.08 145.68 171.3 145.24 172.13 144.37 172.84 145.51 173.65 144.92 174.65 145.83 175.36 145.61 177.05 145.75 181.1 146.07 183.42 146.14 185.49 145.65 186.32"/>
      <polygon class="cls-1" points="165.16 183.47 164.32 184.83 162.48 186.04 161.3 186.42 157.31 186.29 156.45 185.97 154.71 184.63 154.02 183.65 153.81 176.74 153.81 169.66 154.19 168.13 155.37 167.57 156.1 167.57 157.24 168.61 157.41 174 157 176.17 157.59 178.86 157.1 179.39 157.62 180.72 157.73 183.07 158.63 183.75 161.2 183.55 161.65 182.99 162.06 180.65 161.76 170.52 161.93 168.53 162.1 168 163.28 167.62 164.18 167.6 165.4 168.28 165.43 177.38 164.77 178.91 165.57 181.58 165.16 183.47"/>
      <polygon class="cls-1" points="185.35 185.83 184.38 186.56 183.76 186.56 182.51 185.88 181.85 179.5 181.39 178.44 179.66 181.87 178.93 182.25 176.57 182.1 175.91 181.77 175.15 180.08 174.87 178.9 174.39 178.57 174 179.27 173.9 183.84 173.69 185.2 173.73 185.68 172.27 186.41 171.12 186.05 170.64 185.6 170.53 181.85 170.91 179.32 171.05 175.27 171.02 174.74 171.5 174.39 170.98 172.93 170.81 168.37 171.92 167.63 173.38 167.43 174.8 168.46 175.36 171.16 176.85 174.84 177.37 176 177.79 176.5 178.03 176.68 178.72 175.5 179.14 173.81 179.76 172.62 180.18 170.91 181.32 168.19 182.2 167.48 184.52 167.61 185.42 168.29 185.04 176.23 185.46 181.6 185.49 182.78 185.35 185.83"/>
      <polygon class="cls-1" points="211.13 185.53 209.08 186.43 203.91 186.36 201.76 184.87 201.03 183 201.27 178.32 201.13 175.09 201.24 170.71 202.14 169.32 204.19 167.94 205.54 167.56 208.39 167.69 210.5 168.52 212.21 170.13 212.27 172.02 211.3 172.72 210.19 172.57 209.43 172.07 209.15 171.09 208.49 170.73 207.03 170.41 205.68 170.61 204.81 171.62 204.95 175.02 204.5 176.55 204.57 178.27 204.26 182.65 204.26 183.31 205.68 184.26 207.14 184.24 208 183.94 208.7 183.38 208.91 182.22 209.77 181.49 211.37 181.47 212.66 182.95 211.13 185.53"/>
      <polygon class="cls-1" points="223.38 186.32 221.37 186.34 220.39 185.71 220.12 176.74 220.08 175.59 220.64 169.99 220.6 168.48 221.71 167.65 222.44 167.75 222.82 167.75 223.31 168.08 223.41 171.3 222.96 172.13 222.1 172.84 223.24 173.64 222.65 174.65 223.55 175.36 223.34 177.05 223.48 181.1 223.79 183.42 223.86 185.49 223.38 186.32"/>
      <path class="cls-1" d="M240,170.85l-1.14-.86-1.63-.1-1.88-.3-.69.35v.48l-.21.53.48.5.11,3.17.1,4.21-.42,1.36.07,2.87.52,1.06,2.98.05.97-.48.31-2.22-.03-1.36-.21-7.56.69-.88-.04-.83ZM242.71,174.5l-.45,1.54.03.98.11,3.23-.11,4.58-1.6,1.18-2.81.4-5.55-.08-.42-.35-.14-3.88.38-.81,1.43-.91-.49-.35-.73.03-.52-.83-.21-7.43.38-3.53.7-.53.66-.18,3.29.1,1.87-.03h.87l1.49.5.9.8.52,1.34.03,1.16.04,1.24v.48l.52.33-.21,1.01Z"/>
      <polygon class="cls-1" points="251.59 167.99 251.21 168.52 250.76 169.52 250.86 172.22 250.55 177.44 250.86 185.7 251.84 186.56 260.65 186.41 261.59 185.68 261.73 185.02 261.07 184.34 260.06 184.01 258.47 184.04 254.75 184.29 254.27 183.99 254.2 182.6 254.41 181.59 253.85 179.43 254.3 178.37 258.74 178.17 259.61 177.79 260.06 176.63 259.12 175.75 254.93 175.67 254.44 175.37 253.92 174.34 253.88 173.33 253.99 170.1 254.47 169.8 259.54 169.37 260.27 169 260.24 168.47 259.51 168.49 258.85 167.66 256 167.74 252.77 167.44 251.59 167.99"/>
      <path class="cls-1" d="M272.38,173.63l.21-1.16.14-2.7,2.98-.05.76.86.14,4.03-.73.83-2.7.23-.73.03-.07-2.07ZM271.23,167.61l-1.6.5-.24.17-.38,1.18-.11,4.92.04.83.07,10.13.9.98,1.46-.03.42-.3.45-.53-.03-1.16-.17-5.92.7-.53.66-.03.97.5.52.83.49,2.22.52,1.16.28,1.16.52,1.86.77.83.9.15,1.6-.68.45-1.06-.52-.45-1.53-4.92-.52-1.33,1.8-1.89-.11-3.35-.07-2.04-.69-2.17-.73-.5-1.39-.46-4.23-.28-1.18.18Z"/>
      <path class="cls-1" d="M53.47,53.36c-1.15-3.59-6.21-6.57-9.39-7.75l-2.04-.43c-.92-.45-1.82-.64-2.68-.72-.56-.04-1.13-.07-1.62-.14l-.18-.02-.18.02c-1.17.35-4.46,1.12-8.68,4.61-3.87,2.43-7.42,5.41-10.69,7.84-.84.83-.59,2.01-2.09,2.64.05.96-1.38,1.37-2.19,1.92,1.1,1.83-2.89,2.22-2.1,4.01-.95.94-1.21,2.11-2.05,3.49-.79,1.29-1.37,1.26-1.68,3.48-.39.66-.93,1.46-1.24,2.13-.07.15-.15.29-.2.45-.94,2.17-1.09,3.04-1.63,5.37-1.29,2.28-.83,4.57-.31,6.77.2.91.42,1.82.53,2.67.02.2.03.28.04.47.14.14.2.22.34.36.59.66,1.03,1.47,1.48,2.33.67,1.28,1.44,2.73,2.97,4.01l.2.15c.09.04.16.08.24.12,2.22.95,4.3,2.75,6.12,4.2,1.92,1.52,3.62,3.01,5.43,3.73,3.39,2.07,9.31,5.77,10.89,9.14l.1.2.15.16c4.31,4.46,5.85,10.71,4.69,15.72-.14.63-.22.94-.36,1.55-.15,1.62-.71,2.97-1.28,4.28-.36.81-.88,2.82-1.27,4.2-.34.73-.59,1.38-1.3,2.22l-.05.13c-.42.49-.45,1.2-1.02,1.58-1.15,1.52-2.22,3.06-3.93,4.27-.86.61-1.33,1.8-2.14,2.5-1.02.87-2.52,1.35-3.44,2.35-1.05,1.13-3.01,2.25-4.51,3.28-1.39,1.82-3.86,2.77-5.6,4.27-.43.26-.82.49-1.09.67-1.85,1.2-1.17,1.54-3.76,2.55-.59.23-1.4.59-1.96.79-.81.25-1.19,1.01-2.76,1.53-2.68.9-5.01,2.63-1.3,3.84.66.21,1.42-.15,2.49-.1,0,.03,4.03-.3,4.96-.87,2.6.14,3.18-1.7,5.84-1.74.8-.03,3.09-1.48,6.1-2.29,2.29-2.29,5.46-1.86,7.77-4.33.33-.06,2.21-1.4,2.39-1.25,2.3-2.14,3.46-2.36,5.84-4.58,1.21-1.13,3.55-2.98,5.89-6.11.33-.25,1.46-2.79,1.79-2.87.44-.61,1.54-1.21,1.79-1.8h0c.94-1.38,1.67-3.21,2.2-4.75l.07-.24c.3-1.72,1.05-3.45,1.85-5.35.32-.76.48-2.17.75-2.96l-.36-.49v-.15c.12-.84.36-1.73.58-2.65.46-2.04.77-3.67.35-5.81-.09-1.03-.07-2.12-.06-3.24.02-2.71-.81-6.15-3.17-8.69-.43-.55-.71-1.33-1.01-2.13-.53-1.39-1-2.91-2.92-4.05-.9-1.17-2-2.24-3.06-3.28-.97-.97-1.88-1.89-2.54-2.88-.08-.12-.12-.18-.2-.31-.14-.06-.22-.1-.36-.17-.68-.36-1.32-.98-1.98-1.63-1.12-1.13-2.4-2.42-4.17-2.93-.95-1.13-2.26-2.13-3.28-3.04-.25-.23-.5-.45-.73-.69-.8-1.26-1.88-1.96-2.7-2.93-.64-.77-.91-1.81-1.46-2.66-.59-1.46-.08-3.58.92-5.68.24-.5.47-1.04.69-1.46l.05-.09.02-.11c.09-.34.11-.68.13-.95v-.08c.11-.21.22-.39.34-.58.87-.74,1.71-2.52,2.17-3.37.6-1.09.9-1.71,2.36-2.63.1-.06.15-.1.24-.16l.2-.2c3.85-4.22,5.49-5.42,5.49-5.42,1.27-.7,1.89-1.04,3.11-1.65.63-.37,4.69-2.55,5.55-3.5,1.75-1.13,1.98-1.59,3.76-2.15.1-.03.41-.18.43-.29,1.15-.65,2.74-.67,3.44-1.67"/>
      <path class="cls-1" d="M153.54,77.99c-.96.54-2.44,1.79-2.88,2.68.1,3.08-.44,1.94-.58,5.09-.89,2.37-.56,5.22-1.22,7.68.74,2.88-1.85,4.43-1.53,7.13-1.91,2.64-.46,6.62-3.21,8.92-.92,1.47-.63,3.46-1.23,5.07-1.65,1.75-.94,4.64-3.5,6.09-1.14,2.43-3.21,4.56-4.71,6.72-2.37-.24-1.75-3.02-2.58-4.53.44-3.29-.98-6.68-.55-10.14.45-2.36.55-4,.45-6.02-.51-5.49,1.75-14.22.58-15.61-1.62-2.12-5.33-3.1-7.98-2.65-.39-.01-.73.07-1.05.23-1.5-.68-3.23-.81-4.88-.39-2.12.1-2.68,2.98-4.26,4.08-.07,5.05-1.72,9.79-.41,15.1-.43,1.87.06,3.76.63,5.62-.99,3.61,1.46,6.99,1.31,10.67,1.45,3.51,1.73,7.67,4.33,10.56.39,4.12,3.59,6.89,6.14,9.72.61.52,1.15.65,1.66.58,1.87,1.5,3.29-.97,5.35-.49,3.16-1.2,5.63-4.45,7.42-7.27,4.96-5.24,7.51-11.92,10.1-18.37.28-3.06,1.99-5.49,2.69-8.36.74-3.5,1.78-6.89,2.45-10.42.31-1.06-.38-2.54.36-3.43-.07-7.07,1.65-9.97-.9-17.03-.34-.61-1.01-1.64-1.99-1.23"/>
      <path class="cls-1" d="M91.35,101.56c-.79,2.36-1.58,5.01-2.05,7.71-1.28,3.5-1.91,3.79-3.26,6.01-3.94,7.09-9.58,12.03-14.36,18.78-.98.76-1.22.77-1.71.89-.49-3.85,1.15-6.59,2.09-10.36,1.67-5.79,5.8-10.55,8.19-16.04,3.19-2.85,5-6.41,8.44-8.64,2.64-.34,3.86-4.22,6.59-3.97l-.68.08c-1.52,1.51-3.22,3.14-3.26,5.54M106.63,147.24c.45-1.12-.4-2.61-.32-3.7-1.55-1.61.52-3.54-.73-5.51.08-3.56-.66-7.64.09-11.43-1.22-6.27,1.11-12.31,1.68-18.46-.21-3.07,2.75-5.8.55-8.57-.04-.39-.15-.75-.28-1.1-.13-.08-.27-.14-.4-.24-.56-.39-1.34-.52-2.16-.56-.84-1.45-4.15-.56-5.24-1.93-1.58-.2-3.07-.61-4.51-1.23-.25-1.68,1.6-1.27,2.39-1.92,1.25-1.2,3.24-1.03,4.17-2.74.31-2.85-6.7-7.23-9.64-9.15l-3.33-1.46c-1.19-.83-1.77.74-2.95.54-7.8,3.58-13.56,10.17-19.18,17.33-.84,1.39-.63,3.25-2.06,4.33.03,1.49-1.33,2.2-2.09,3.09,1.02,2.71-2.68,3.52-1.94,6.12-1.71,1.22-.72,3.58-1.82,5.13.16,3.45-1.25,6.05-.85,9.57-1.97,2.97.42,5.35-.68,8.61,1.7,1.82-.72,4.19.98,6.17.52,2.44,1.07,4.87,3.23,6.59,1.62-.2,3.68,2.45,5.25,2.38,1.19-.82,2.96-.3,4.11-1.23-.28-3.53,3.99-1.98,4.6-4.52.79-3.02,4.59-2.23,4.83-5.08,1.19-1.12,1.99-3.11,3.18-4.25,1.29-2.81,3.43-5.28,5.35-7.82.67-1.64,1.3-3.4,2.91-4.53.42-.03.81,0,1.06.41-.74,3.39,1.42,5.86,1.27,9.19,1.77,2.71,1.96,3.79,2.64,6.93,2.26,1.98,2.18,5.63,4.76,7.34.39,1.13.81,2.79,2.08,3.09,1.17-.96,1.32,1.66,2.44.5.65-.55.74-1.21.61-1.88"/>
      <path class="cls-1" d="M187.88,102.11c-1.14,3.6-2.87,6.93-4.65,10.29-2.18,2.26-2.34,5.35-4.38,7.67-1.85,2.61-4.32,5.89-5.47,8.78-.7,1.06-2.71,1.94-3.86,2.29-.76-.04.34-1.38-.02-2.2-.03-6.17,3.27-10.97,5.56-16.18,3.65-3.98,5.83-9.09,10.59-12.07,1.64-1.06,3.23-4.04,5.35-2.34,0,0-2.72,2.39-3.13,3.76M198.48,92.19c1.93-1.69-.49-5.14-2.5-6.69-2.7-3.47-8.58-4.02-9.47-4.7-2.85-1.56-6.42,2.33-8.98,2.71-2.37,1.89-4.39,4.33-6.87,6.1-5.22,8.04-9.97,17.24-12.85,26.34-.57,3.21-1.74,6.6-1.54,10.02-.31,3.24-.62,6.36-.19,10.17.13,2.95.35,3.07.89,6.03,1.13,1.26,1.85,2.98,3.36,3.84,2.51-.48,5.49,0,7.31-1.92,7.28-3.4,11.84-13.83,16.82-19.8.53-.31,1.24-1.75,2.02-.68,1.26,3.09.6,4.66,2.04,7.94-.27,3.05,1.47,5.84,2.43,8.71,2.03,4.28,1.53,7.69,9.45,9.25,1.12-.17,1.19-1.57,1.2-2.52-2.08-2.16-.63-4.1-1.01-6.75-.16-1.63,1.23-5.25,0-6.74.6-4.73,1.97-8.9,1.35-13.3.77-7.33.09-12.04,4.13-19.36,2.55-3.39-6.9-5.89-7.59-8.63"/>
      <path class="cls-1" d="M342.88,107.26c-2.94,6.94-5.36,14.06-9.69,20.44-2.42,1.66-4.2,6.05-7.76,5.48-2.65-4.5,1.96-7.21,2.34-11.35.61-3.27,2.44-6.01,3.52-9.07,1.88-2.52,4.76-5.11,6.19-8.07,1.7-1.08,2.82-3.17,4.66-4.18,1.36-.22,1.59-4.23,2.84-1.88.07,3.2-1.56,5.68-2.12,8.64M360.41,97.18h-.72c.02-2.99-8.75-1.26-10.11-3.18-.46-.67,0-1.43.63-1.73,1-2.12-1.94-4.28-3.73-6.25l-5.15-2.66c-2.81-1.71-4.91-1.54-7.15-.85-7.65,3.85-11.27,12.83-14.89,19.95.3,1.49-.76,2.58-1.14,3.89-.48,4.71-3.58,8.28-3.5,13.15-1.18,3.38-1.36,7.75-1.85,11.36.41,3.21,1.38,3.58,2.7,7.69.54,2.55.67,3.1,1.7,5.57.7,1.79,2.8,1.86,4.44,2.15,2.94-1.37,5.86-2.74,8.36-5.04,2.77-3.92,7.13-6.69,9.04-11.09.77-1.08,1.78-2.2,3.03-2.6,1.49,1.56,1.68,3.86,1.91,6.05,1.47,3.27,3.05,6.44,4,9.93.81,3.53,5.41,7.83,9.19,7.49.46.51,1.11.51,1.43-.14-.58-2.59-1.87-4.55-1.81-7.21-.54-2.63-.27-6.24-.66-9.3-.35-2.83,1.32-6.06.49-9.26.99-3.1.87-6.63,1.63-9.79-.85-4.18,1.76-7.31,1.97-11.24.49-2.3-.3-4.96.2-6.91"/>
      <path class="cls-1" d="M255.65,101.42c.39-3.43-2.68-8.08-4.71-10.66-1.75-.58-3.16-2.68-5.22-2.74-2.56,1.3-5.82,4.82-6.82,7.95-1.89,4.04-5.22,8.29-6.75,12.48-1.09,1.3-.61,3.32-2.37,4.25-.88.31-1.33-.48-1.97-.82.16-1.99.33-4.28.47-6.44.33-.93,1.07-1.65.95-2.74-.66-2.19.1-4.45.46-6.58-.19-2.77.43-5.9-1.55-8.23l-.9-1.23c-1.57-.46-3.67-.82-5.58-.66-2.2-.61-6.41-1.02-8.62-.06-1.73,2.27-1.92,5.7-1.04,8.5,1.62,2.54,1.06,6.21.62,8.92-.71,6.41-.37,13.61-1.49,20.02,1.11,4.73-2.7,17.75,2.07,21.45,1.33.32,5.71,1.22,6.99.67,1.22.14,2.41-.18,3.49-.51,3.06-1.13,2.31-4.8,3.58-7.13,2-4.22,3.99-15.17,6-19.39,2.16-3.15,3.89-6.44,6.05-9.6,1.22-.14.75-.9,1.49.06-.01,4.08,1.12,8.47.25,12.07-.84,2.2.54,4.29-.33,6.45.05,2.85-.71,5.41.7,7.82,1.33,2.27.77,4.64,1.94,6.31,2.36,3.4,2.61,4.96,4.58,7.67.66.17,3.78,1.21,4.17.74.3-.62.07-1.13-.1-1.78.16-2.81-.36-5.73-.18-8.23,2.09-6.24,1.55-13.58,2.87-20.15,1.27-1.27.92-3.16,1.24-4.81-.76-4.42.65-9.25-.3-13.57"/>
      <path class="cls-1" d="M308.79,101.88c-.79-2.44-1.88-6.96-2.88-9.32-1.09-3.02-7.54-2.83-10.07-3.58-1.35.58-2.46,1.71-3.51,3.02-3.86,2.64-5.96,9.28-8.63,13.16-.68,1.09-.87,2.74-2.23,3.15-1.88-1.64-.47-9.96-.68-12.31-.23-1.48-.87-2.74-.73-4.39-.97-1.23-.88-3.12-1.85-4.25-1-.67-2.32-.42-3.38-.06-1.33-.78-8.53-1.9-9.6-1.45-2.38.65-2.94,3.47-2.77,5.66,1.85,2.78.64,12.68.81,15.9-1.05,7.12-.82,15.22-1.34,23.83-.26,2.34-.38,8.06-.7,10.36.83,1.74,2.55,2.05,3.84,3.1,1.07.38,2.02.38,2.89-.04.6.35,2.61-.07,3.16.38,1.47.54,2.27-.1,3.46-.58.52-2.92,3.08-5.64,2.9-8.86,2.54-7.23,6.54-19.01,11.23-25.92,1.54-1.2,2.77-4.22,5.02-2.74.08,1.99.19,4.28.81,6.17-.69,3.87,0,8.84.26,12.61l.31,1.1c.4,3.46.92,6.52,1.12,9.87,2.31,3.36,1.76,6.09,4.22,9.42.72,1.61-.03,4.8,2.14,4.8,3.05-.59,1.4-2.67,2.16-5.57,1.77-6.92,1.02-11.13,2.45-17.4,1.81-2.74,1.12-6.59,1.38-10.01.54-1.1.66-2.58.44-3.84-.14-4.08.44-8.2-.23-12.2"/>
    </g>
  </g>
</svg>