<?xml version="1.0" encoding="UTF-8"?>
<svg id="Layer_2" data-name="Layer 2" xmlns="http://www.w3.org/2000/svg" viewBox="0 0 799.92 218.81">
  <defs>
    <style>
      .cls-1 {
        fill: #606060;
      }
    </style>
  </defs>
  <g id="Layer_1-2" data-name="Layer 1">
    <path class="cls-1" d="M113.75.09C53.37-2.31,2.48,44.69.09,105.07c-2.4,60.38,44.61,111.26,104.98,113.66,60.38,2.4,111.26-44.6,113.66-104.98C221.12,53.37,174.12,2.48,113.75.09ZM159.93,160.36c-1.36,2.4-4.01,3.6-6.59,3.24-.79-.11-1.58-.37-2.32-.79-14.46-8.23-30.22-13.59-46.84-15.93-16.62-2.34-33.25-1.53-49.42,2.4-3.51.85-7.04-1.3-7.89-4.81-.85-3.51,1.3-7.04,4.81-7.89,17.78-4.32,36.06-5.21,54.32-2.64,18.26,2.57,35.58,8.46,51.49,17.51,3.13,1.79,4.23,5.77,2.45,8.91ZM174.31,131.64c-2.23,4.12-7.39,5.66-11.51,3.43-16.92-9.15-35.24-15.16-54.45-17.86-19.21-2.7-38.47-1.97-57.26,2.16-1.02.22-2.03.26-3.01.12-3.41-.48-6.33-3.02-7.11-6.59-1.01-4.58,1.89-9.11,6.47-10.12,20.77-4.57,42.06-5.38,63.28-2.4,21.21,2.98,41.46,9.62,60.16,19.74,4.13,2.23,5.66,7.38,3.43,11.51ZM190.25,99.27c-2.1,4.04-6.47,6.13-10.73,5.53-1.15-.16-2.28-.52-3.37-1.08-19.7-10.25-40.92-17.02-63.07-20.13-22.15-3.11-44.42-2.45-66.18,1.97-5.66,1.15-11.17-2.51-12.32-8.16-1.15-5.66,2.51-11.17,8.16-12.32,24.1-4.89,48.74-5.62,73.25-2.18,24.51,3.44,47.99,10.94,69.81,22.29,5.12,2.66,7.11,8.97,4.45,14.09ZM314.35,98.94l-7.58-2.26c-15.24-4.51-19.51-6.21-19.51-12.34,0-5.8,6.45-12.09,20.64-12.09s25.88,6.85,32.01,11.93c1.05.89,2.18.48,2.18-.89v-20.08c0-.89-.24-1.37-.89-1.85-7.58-5.64-20.72-9.76-33.94-9.76-26.93,0-43.05,15.32-43.05,32.73,0,19.67,12.5,26.53,33.06,32.33l8.87,2.5c15.4,4.35,18.22,8.22,18.22,14.19,0,10-7.58,13.06-18.87,13.06-14.19,0-31.52-8.3-39.67-18.46-.73-.89-1.61-.48-1.61.56v22.09c0,.89.08,1.29.73,2.02,6.77,7.42,22.98,13.95,41.84,13.95,23.22,0,40.63-13.54,40.63-34.51,0-16.29-9.59-26.12-33.06-33.14ZM406.5,82.9c-15.32,0-24.19,9.35-29.35,18.7v-16.12c0-.73-.4-1.13-1.13-1.13h-20.24c-.73,0-1.13.4-1.13,1.13v103.44c0,.73.4,1.13,1.13,1.13h20.24c.73,0,1.13-.4,1.13-1.13v-41.36c5.16,9.35,13.87,18.54,29.51,18.54,20.64,0,35.47-17.82,35.47-41.76s-15-41.44-35.64-41.44ZM400.53,146.59c-10.8,0-20.16-10.64-23.86-22.41,3.71-12.42,12.25-21.93,23.86-21.93s18.7,8.38,18.7,22.09-7.66,22.25-18.7,22.25ZM771,84.35h-20.64c-.73,0-1.05.16-1.37.89l-20.8,49.99-20.88-49.99c-.32-.73-.64-.89-1.37-.89h-33.38v-5.32c0-8.71,5.89-12.74,13.46-12.74,4.51,0,9.43,2.34,12.9,4.43.81.48,1.37-.08,1.05-.81l-7.26-17.33c-.24-.56-.56-.89-1.13-1.21-3.55-1.85-9.35-3.47-15-3.47-17.09,0-26.93,13.06-26.93,29.67v6.77h-13.71c-.73,0-1.13.4-1.13,1.13v16.12c0,.73.4,1.13,1.13,1.13h13.71v60.79c0,.73.4,1.13,1.13,1.13h20.64c.73,0,1.13-.4,1.13-1.13v-60.79h17.66l25.64,55.71-13.79,30.31c-.4.89.08,1.29.89,1.29h22.01c.73,0,1.05-.16,1.37-.89l45.55-103.52c.32-.73-.08-1.29-.89-1.29ZM492.44,82.42c-26.12,0-44.1,18.46-44.1,42.09s17.98,42.09,44.1,42.09,44.18-18.62,44.18-42.09-18.14-42.09-44.18-42.09ZM492.53,146.83c-12.5,0-21.37-9.51-21.37-22.33s8.87-22.33,21.37-22.33,21.28,9.51,21.28,22.33-8.87,22.33-21.28,22.33ZM798.33,89.09c-1.06-1.83-2.53-3.26-4.41-4.3-1.88-1.03-3.98-1.55-6.32-1.55s-4.44.52-6.32,1.55c-1.88,1.04-3.35,2.47-4.41,4.3-1.06,1.83-1.59,3.9-1.59,6.21s.53,4.34,1.59,6.17c1.06,1.83,2.53,3.26,4.41,4.3,1.88,1.04,3.98,1.55,6.32,1.55s4.44-.52,6.32-1.55,3.35-2.47,4.41-4.3c1.06-1.83,1.59-3.88,1.59-6.17s-.53-4.38-1.59-6.21ZM796.4,100.45c-.86,1.52-2.06,2.7-3.59,3.56-1.53.85-3.27,1.28-5.2,1.28s-3.72-.43-5.25-1.28c-1.53-.85-2.72-2.04-3.57-3.56-.85-1.51-1.27-3.23-1.27-5.15s.42-3.63,1.27-5.13c.85-1.5,2.04-2.68,3.57-3.53,1.53-.85,3.28-1.28,5.25-1.28s3.67.43,5.2,1.28c1.53.85,2.73,2.04,3.59,3.56.86,1.52,1.29,3.23,1.29,5.15s-.43,3.59-1.29,5.11ZM615.56,47.75c-7.74,0-13.38,5.48-13.38,12.74s5.64,12.74,13.38,12.74,13.54-5.48,13.54-12.74-5.64-12.74-13.54-12.74ZM791.78,95.07c.82-.6,1.23-1.4,1.23-2.39s-.4-1.83-1.2-2.43c-.8-.6-1.96-.9-3.48-.9h-5.36v11.2h2.59v-4.45h1.41l3.41,4.45h3.18l-3.73-4.72c.79-.15,1.46-.4,1.96-.77ZM787.92,94.08h-2.36v-2.74h2.45c.73,0,1.29.11,1.68.34.39.23.59.58.59,1.06,0,.45-.21.79-.61,1.01-.41.23-.99.34-1.75.34ZM625.96,84.35h-20.64c-.73,0-1.13.4-1.13,1.13v78.04c0,.73.4,1.13,1.13,1.13h20.64c.73,0,1.13-.4,1.13-1.13v-78.04c0-.73-.4-1.13-1.13-1.13ZM595.56,144.58c-2.34,1.29-5.4,2.34-9.59,2.34-6.61,0-10.8-3.87-10.8-12.42v-31.77h20.16c.73,0,1.13-.4,1.13-1.13v-16.12c0-.73-.4-1.13-1.13-1.13h-20.16v-21.04c0-.89-.56-1.37-1.37-.73l-36.04,28.38c-.48.4-.65.81-.65,1.45v9.19c0,.73.4,1.13,1.13,1.13h14.03v35.15c0,19.03,10.96,27.9,26.61,27.9,6.77,0,13.3-1.77,17.17-4.03.56-.32.64-.65.64-1.21v-15.32c0-.81-.4-1.05-1.13-.64Z"/>
  </g>
</svg>