<?xml version="1.0" encoding="UTF-8"?>
<svg id="Layer_2" data-name="Layer 2" xmlns="http://www.w3.org/2000/svg" viewBox="0 0 633.9 143.33">
  <defs>
    <style>
      .cls-1, .cls-2 {
        fill: #606060;
      }

      .cls-2 {
        fill-rule: evenodd;
      }
    </style>
  </defs>
  <g id="Layer_1-2" data-name="Layer 1">
    <path id="Shape" class="cls-2" d="M435.6,86.06c-1.91,2.41-4.78,3.85-7.84,3.94-4.41,0-7.11-3.53-7.11-12.08s2.95-12.25,7.52-12.25c2.72.09,5.34,1.08,7.44,2.82v17.58ZM445.42,97.35v-57.88l-9.82,1.41v21.18c-2.69-2.22-5.72-4.77-10.94-4.77-9.15,0-14.38,7.65-14.38,20.72s5.96,20.06,14.87,20.06c4.32-.14,8.37-2.15,11.11-5.51l.66,4.69,8.5.1ZM408.94,66.3v-8.85c-8.33.08-12.82,5.83-14.21,7.31l-.73-6.49h-8.5v39.13h9.82v-25.72c1.64-1.48,5.32-5.27,13.67-5.35l-.04-.03ZM366.54,88.04c-1.84,1.82-4.28,2.9-6.86,3.05-2.69,0-5.23-1.16-5.23-5.42,0-5.27,3.76-6.58,12.09-7.16v9.53ZM376.02,97.41v-24.51c0-8.64-.24-15.46-12.63-15.46-5.2.18-10.33,1.35-15.1,3.46l1.71,5.65c3.27-.96,6.64-1.51,10.05-1.64,5.72,0,6.45,2.06,6.45,6.58v2.06c-8.83.49-21.58.24-21.58,12.49,0,8.3,4.74,12.17,10.79,12.17,4.29-.19,8.32-2.08,11.22-5.27l.74,4.43,8.33.03ZM328.62,86.12c-1.91,2.41-4.78,3.85-7.84,3.94-4.41,0-7.11-3.53-7.11-12.08s2.95-12.25,7.52-12.25c2.72.09,5.34,1.08,7.44,2.82v17.58ZM338.44,97.41v-57.88l-9.82,1.41v21.18c-2.69-2.22-5.72-4.77-10.94-4.77-9.15,0-14.38,7.65-14.38,20.72s5.96,20.06,14.87,20.06c4.32-.14,8.37-2.15,11.11-5.51l.66,4.69,8.5.1ZM295.57,97.41v-25.5c0-6.32-.32-14.47-11.03-14.47-5.61,0-10.94,4.02-13.4,6l-.73-5.18h-8.5v39.13h9.82v-28.23c1.56-.99,5.39-3.53,8.99-3.53,4.41,0,4.9,3.12,4.9,8.06v23.67l9.95.04ZM243.66,88.04c-1.84,1.82-4.28,2.9-6.86,3.05-2.69,0-5.23-1.16-5.23-5.42,0-5.27,3.76-6.58,12.09-7.16v9.53ZM253.15,97.41v-24.51c0-8.64-.24-15.46-12.63-15.46-5.21.18-10.34,1.35-15.11,3.46l1.71,5.65c3.27-.96,6.64-1.51,10.05-1.64,5.72,0,6.45,2.06,6.45,6.58v2.06c-8.83.49-21.58.24-21.58,12.49,0,8.3,4.74,12.17,10.79,12.17,4.29-.19,8.32-2.08,11.22-5.27l.73,4.43,8.36.03ZM219.85,95.43l-2.05-5.65c-2.07.75-4.25,1.16-6.45,1.23-4.08,0-4.34-2.63-4.34-5.84v-20.24h10.8l.98-6.66h-11.69v-12.41l-8.5,1.41-1.4,10.94-6.54,1.23v5.42h6.54v18.92c0,5.35.17,9.54,3.02,12.08,1.64,1.41,4.21,2.39,7.84,2.39,4.12.02,8.18-.94,11.86-2.81h-.07ZM190.02,80.96c0-9.37-5.81-12.71-13.89-15.29-7.27-2.3-11.77-3.61-11.77-8.47,0-5.27,4.41-7.48,9.4-7.48,4.2.06,8.37.81,12.33,2.22l2.29-6.9c-4.83-2.07-10.03-3.16-15.28-3.2-11.69,0-18.87,6-18.87,16.11,0,15.53,16.58,14.47,23.04,19.41,1.66,1.15,2.62,3.07,2.54,5.1,0,4.6-4,7.89-10.3,7.89-4.36,0-8.65-1.08-12.5-3.12l-3.44,6.75c.41.41,6.62,4.24,16.5,4.24,12.84-.06,20.02-6.47,20.02-17.24h-.07ZM633.9,97.44l-16.22-20.47,15.24-18.68h-10.47l-14.03,17.43v-36.17l-9.82,1.41v56.47h9.82v-18.35l14.14,18.35h11.34ZM589.66,97.44v-25.5c0-6.32-.32-14.47-11.03-14.47-5.61,0-10.94,4.02-13.4,6l-.73-5.18h-8.5v39.13h9.82v-28.23c1.56-.99,5.39-3.53,8.99-3.53,4.41,0,4.91,3.12,4.91,8.06v23.67l9.93.04ZM537.75,88.04c-1.84,1.82-4.28,2.9-6.86,3.05-2.69,0-5.23-1.16-5.23-5.42,0-5.27,3.76-6.58,12.09-7.16v9.53ZM547.24,97.41v-24.51c0-8.64-.24-15.46-12.63-15.46-5.21.18-10.35,1.35-15.12,3.46l1.71,5.65c3.27-.96,6.64-1.51,10.05-1.64,5.72,0,6.45,2.06,6.45,6.58v2.06c-8.83.49-21.58.24-21.58,12.49,0,8.3,4.74,12.17,10.79,12.17,4.29-.19,8.32-2.08,11.22-5.27l.73,4.43,8.38.03ZM500.05,81.22c0,4.02-1.63,6.49-4.08,7.72-2.46,1.23-4.98,1.16-9.4,1.16h-3.76v-17.19h5.23c4.83,0,6.54.24,8.25,1.16,2.47,1.17,3.86,3.53,3.86,7.14h-.1ZM499.39,57.37c0,6.25-2.95,8.55-12.42,8.55h-4.21v-16.11h5.23c4.9,0,6.71.24,8.5,1.31,2.01,1.41,3.14,3.77,2.99,6.23h-.1ZM510.62,82.53c0-8.3-4.49-12.49-12.63-13.33,7.52-1.23,11.36-5.65,11.36-12.99,0-13.48-11.6-13.65-21.56-13.65h-15.01v54.84h13.4c9.55,0,12.42-.32,15.69-1.64,5.54-1.95,9.14-7.34,8.83-13.24h-.07Z"/>
    <path id="Shape-2" data-name="Shape" class="cls-1" d="M116.25,12.41c-.12-3.3-2.42-6.11-5.61-6.87C93.91,1.97,76.86.12,59.75,0,42.64.12,25.59,1.97,8.85,5.53c-3.19.77-5.48,3.58-5.61,6.87C1.93,26.53-1.13,62.79.43,77.35c3.52,32.88,26.88,54.05,55.08,64.57,1.38.52,2.79.99,4.21,1.41l.98-.34h.07c3.51-1.2,7.02-2.57,10.31-4.08L19.99,38.48l-5.02-3.76c-.79-.58-1.26-1.5-1.26-2.48v-15.58c0-.86.69-1.56,1.54-1.57.33,0,.64.1.91.28l12.39,9.39c.77.6,1.21,1.53,1.19,2.51v6.23c5.43-2.98,11.53-4.5,17.72-4.42h2.2c11.22.59,19.03,8.16,32.51,8.88h2.15c9.74,0,16.6-3.5,21.79-6.41.59,7.96,1.16,16.77,1.4,24.75l.15,7.89c-6.15,5.04-16.18,9.46-21.9,9.46-9.48,0-15.92-6.06-24.9-6.06-4.2-.01-8.31,1.24-11.8,3.6l31.69,62.62c3.93-2.32,7.68-4.93,11.22-7.81,14.41-11.72,24.64-27.88,26.87-48.77,1.75-14.41-1.3-50.76-2.6-64.82ZM53.76,128.46c-.99-.43-1.97-.88-2.95-1.34-21.05-10.22-36.16-27.26-38.7-51.06-.69-6.52-.32-18.48.38-30.63l41.26,83.04ZM84.45,27.7h-2.19c-13.48-.71-20.93-7.71-32.19-8.3h-1.87c-3.4-.02-6.78.46-10.05,1.41l-9.91-6.75c10.44-1.49,20.98-2.25,31.53-2.29,15.17.07,30.29,1.59,45.18,4.52,0,0,.28,3.61.43,5.49-6.34,3.8-13.57,5.84-20.95,5.91ZM84.63,117.2l-17.29-34.02c-.89-1.68-2.08-3.19-3.49-4.45,5.39,1.71,11.74,5.86,22.06,5.86s18.24-5.89,21.63-9.01v.49c-1.88,17.26-10.38,30.99-22.91,41.12Z"/>
  </g>
</svg>