<?xml version="1.0" encoding="UTF-8"?>
<svg id="Layer_2" data-name="Layer 2" xmlns="http://www.w3.org/2000/svg" viewBox="0 0 806.68 151.9">
  <defs>
    <style>
      .cls-1 {
        fill: #606060;
      }
    </style>
  </defs>
  <g id="Layer_1-2" data-name="Layer 1">
    <g>
      <g>
        <path class="cls-1" d="M426.5,71.58c-5.76-1.85-13.07-3.31-21.94-4.37-6.35-.8-11.09-1.52-14.2-2.18-3.11-.66-5.66-1.92-7.64-3.77-1.99-1.85-2.98-4.5-2.98-7.94,0-4.63,2.12-8.37,6.35-11.22,4.24-2.85,9.79-4.27,16.68-4.27,6.75,0,12.38,1.72,16.88,5.16,4.5,3.44,7.08,7.81,7.74,13.1h16.28c-.79-10.33-4.93-18.27-12.41-23.83-7.48-5.56-17.18-8.34-29.09-8.34-7.28,0-13.83,1.29-19.66,3.87-5.83,2.58-10.42,6.19-13.8,10.82-3.38,4.64-5.06,9.93-5.06,15.89,0,6.62,1.72,11.81,5.16,15.59,3.44,3.77,7.94,6.52,13.5,8.24,5.56,1.72,12.71,3.11,21.44,4.17,6.22.79,11.02,1.59,14.39,2.38,3.38.79,6.12,2.25,8.24,4.37,2.12,2.12,3.18,5.16,3.18,9.13,0,4.64-2.22,8.37-6.65,11.22-4.44,2.85-10.23,4.27-17.37,4.27-8.08,0-14.66-1.92-19.76-5.76-5.1-3.84-7.78-8.8-8.04-14.89h-16.28c.13,10.86,4.2,19.33,12.21,25.42,8.01,6.09,18.63,9.13,31.87,9.13,7.41,0,14.16-1.26,20.25-3.77,6.09-2.51,10.92-6.09,14.49-10.72,3.57-4.63,5.36-9.99,5.36-16.08,0-7.01-1.76-12.57-5.26-16.68-3.51-4.1-8.14-7.08-13.9-8.94Z"/>
        <path class="cls-1" d="M483.32,40.21h25.61v-14.89h-25.61s0-25.32,0-25.32h-16.28v25.32s-18.27,0-18.27,0v14.89h18.27s0,59.96,0,59.96c0,9.13,2.02,15.82,6.06,20.05,4.04,4.24,10.82,6.35,20.35,6.35h18.66v-14.89h-28.79s0-71.48,0-71.48Z"/>
        <path class="cls-1" d="M661.2,38.62c7.15,0,13.24,1.92,18.27,5.76,5.03,3.84,8.34,9,9.93,15.49h16.48c-1.99-11.12-6.85-19.86-14.59-26.21-7.74-6.35-17.57-9.53-29.49-9.53-9.8,0-18.47,2.15-26.01,6.45-7.55,4.3-13.4,10.36-17.57,18.17-4.17,7.81-6.25,16.81-6.25,27,0,10.19,2.05,19.23,6.15,27.1,4.1,7.88,9.86,14,17.28,18.37,7.41,4.37,16.01,6.55,25.81,6.55,12.04,0,21.97-3.21,29.78-9.63,7.81-6.42,12.77-15.26,14.89-26.51h-16.28c-1.46,6.75-4.7,12.05-9.73,15.89-5.03,3.84-11.25,5.76-18.66,5.76-9.66,0-17.51-3.47-23.53-10.42-6.02-6.95-9.03-15.98-9.03-27.1,0-10.99,3.01-19.92,9.03-26.81,6.02-6.88,13.86-10.33,23.53-10.33Z"/>
        <path class="cls-1" d="M795.36,35.24c-7.55-7.41-17.47-11.12-29.78-11.12-7.94,0-14.66,1.66-20.15,4.96-5.49,3.31-9.9,7.61-13.2,12.91V0h-16.28v126.58h16.28v-50.63c0-11.38,2.75-20.38,8.24-27,5.49-6.62,12.94-9.93,22.34-9.93,8.87,0,15.69,2.75,20.45,8.24,4.77,5.5,7.15,13.47,7.15,23.93v55.4h16.28v-56.39c0-15.88-3.77-27.53-11.32-34.95Z"/>
        <path class="cls-1" d="M582.12,40.21h25.61v-14.89h-25.61s0-25.32,0-25.32h-16.28v25.32s-18.27,0-18.27,0v14.89h18.27s0,59.96,0,59.96c0,9.13,2.02,15.82,6.06,20.05,4.04,4.24,10.82,6.35,20.35,6.35h18.66v-14.89h-28.79s0-71.48,0-71.48Z"/>
        <rect class="cls-1" x="520.11" y="0" width="16.28" height="16.28"/>
        <rect class="cls-1" x="520.11" y="25.32" width="16.28" height="101.26"/>
      </g>
      <g>
        <path class="cls-1" d="M161.75,75.95l7.4-7.4c11.47-11.47,27.04-17.92,43.26-17.92h60.51c27.93,0,50.58,22.64,50.58,50.58v.06c0,27.96-22.67,50.63-50.63,50.63H98.46s0-25.32,0-25.32h174.41c13.98,0,25.32-11.33,25.32-25.32h0c0-13.98-11.33-25.32-25.32-25.32h-111.12Z"/>
        <path class="cls-1" d="M161.75,75.95l-7.4,7.4c-11.47,11.47-27.04,17.92-43.26,17.92h-60.46C22.67,101.27,0,78.6,0,50.63h0C0,22.67,22.67,0,50.63,0h174.41s0,25.32,0,25.32H50.63c-13.98,0-25.32,11.33-25.32,25.32h0c0,13.98,11.33,25.32,25.32,25.32h111.12Z"/>
      </g>
    </g>
  </g>
</svg>