<?xml version="1.0" encoding="UTF-8"?>
<svg id="Layer_2" data-name="Layer 2" xmlns="http://www.w3.org/2000/svg" viewBox="0 0 510.35 546.84">
  <defs>
    <style>
      .cls-1 {
        fill: #00cc6a;
      }
    </style>
  </defs>
  <g id="Layer_1-2" data-name="Layer 1">
    <path class="cls-1" d="M500.77,351.63c6.87,2.95,10.01,8.69,9.53,17.19-.49,8.55-6.38,22.29-17.63,41.27-11.25,19.54-20.43,31.44-27.52,35.85-7.09,4.37-13.56,4.37-19.43,0l-156.29-113.29,20.58,191.54c1.42,7.25-1.75,12.89-9.57,16.77-7.8,3.92-23,5.87-45.48,5.87s-37.66-1.95-45.5-5.87c-7.84-3.88-11.01-9.5-9.53-16.77l20.54-191.54-155.54,113.29c-5.87,4.37-12.5,4.37-19.83,0-7.33-4.41-16.62-16.31-27.87-35.85C6,391.12.22,377.37.02,368.82c-.29-8.51,3.06-14.24,9.9-17.19l176.83-78.18L9.92,195.95C3.08,192.52-.27,186.54.02,178.01c.22-8.51,5.98-22.29,17.23-41.27,11.25-19.05,20.54-30.73,27.87-35.11,7.33-4.37,13.96-4.37,19.83,0l155.54,112.58-20.54-190.79c-1.46-7.8,1.71-13.63,9.53-17.55,7.82-3.92,22.97-5.87,45.5-5.87s37.66,1.95,45.46,5.87c7.84,3.92,11.01,9.75,9.57,17.55l-20.58,190.79,156.29-112.58c5.87-4.37,12.36-4.37,19.43,0,7.07,4.37,16.28,16.33,27.52,35.82,11.25,18.56,17.12,32.04,17.63,40.56.46,8.55-2.66,14.53-9.53,17.94l-176.83,77.51,176.85,78.18Z"/>
  </g>
</svg>