<?xml version="1.0" encoding="UTF-8"?>
<svg id="Layer_2" data-name="Layer 2" xmlns="http://www.w3.org/2000/svg" viewBox="0 0 543.94 131.31">
  <defs>
    <style>
      .cls-1 {
        fill: #606060;
      }
    </style>
  </defs>
  <g id="Layer_1-2" data-name="Layer 1">
    <g>
      <path class="cls-1" d="M403.85,65.66c0-40.86,27.06-65.66,70.05-65.66s70.05,24.8,70.05,65.66-27.06,65.65-70.05,65.65-70.05-24.79-70.05-65.65ZM500.75,65.66c0-17.99-10.14-28.29-26.85-28.29s-26.72,10.3-26.72,28.29,9.98,28.28,26.72,28.28,26.89-10.3,26.89-28.28h-.04Z"/>
      <path class="cls-1" d="M280.18,65.99c0-40.86,28.25-64.96,70.05-64.96,20.48,0,34.85,5.06,46.18,11.7v41.21h-.34c-13.87-9.64-25.88-15.2-40.77-15.2-17.93,0-30.79,9.64-30.79,26.9s13.19,26.72,30.61,26.72c15.4,0,27.75-5.41,40.94-15.36h.34v41.73c-9.34,5.59-25.68,11.52-46.52,11.52-43.16.01-69.71-23.39-69.71-64.25Z"/>
      <path class="cls-1" d="M133,65.66C133,24.8,160.06,0,203.05,0s70.05,24.8,70.05,65.66-27.07,65.65-70.05,65.65-70.05-24.79-70.05-65.65ZM229.9,65.66c0-17.99-10.16-28.29-26.85-28.29s-26.74,10.3-26.74,28.29,9.98,28.28,26.74,28.28,26.89-10.3,26.89-28.28h-.03Z"/>
      <path class="cls-1" d="M50.76,90.63L0,4.54h48.56l24.03,43.79h1.52L98.3,4.51h47.54l-50.76,86.12v36.15h-44.36l.05-36.15Z"/>
    </g>
  </g>
</svg>